{"glyphs":{"0":{"ha":793,"x_min":78,"x_max":715,"o":"m 78 501 q 78 629 78 501 q 156 882 78 757 q 393 1007 234 1007 q 633 878 551 1007 q 715 493 715 748 q 636 113 715 239 q 398 -14 557 -14 q 159 116 239 -14 q 78 501 78 245 m 581 834 q 551 890 581 834 q 395 946 521 946 q 210 834 269 946 q 151 495 151 722 q 212 158 151 269 q 397 47 272 47 q 581 160 522 47 q 640 497 640 272 q 581 834 640 722 z "},"1":{"ha":793,"x_min":135,"x_max":463,"o":"m 463 0 l 396 0 l 396 722 q 404 926 396 821 q 383 907 391 913 l 174 742 l 135 790 l 404 991 l 463 991 l 463 0 z "},"2":{"ha":793,"x_min":77,"x_max":697,"o":"m 375 1006 q 579 937 505 1006 q 653 746 653 867 q 603 556 653 648 q 421 329 553 464 l 167 67 l 167 64 l 697 64 l 697 0 l 77 0 l 77 60 l 340 335 q 497 512 452 450 q 563 628 542 573 q 583 745 583 684 q 525 889 583 833 q 374 945 467 945 q 136 854 249 945 l 100 901 q 375 1006 223 1006 z "},"3":{"ha":793,"x_min":63,"x_max":694,"o":"m 63 110 q 331 46 189 46 q 549 106 473 46 q 625 278 625 166 q 548 430 625 377 q 322 482 471 482 l 215 482 l 215 547 l 323 547 q 519 606 446 547 q 591 765 591 665 q 533 898 591 848 q 379 947 474 947 q 245 927 304 947 q 107 856 185 907 l 74 901 q 214 978 134 950 q 378 1006 294 1006 q 589 941 514 1006 q 663 758 663 876 q 605 602 663 665 q 450 522 547 539 l 450 518 q 632 442 570 503 q 694 278 694 381 q 600 62 694 138 q 328 -14 505 -14 q 63 43 178 -14 l 63 110 z "},"4":{"ha":793,"x_min":29,"x_max":774,"o":"m 603 311 l 774 311 l 774 253 l 603 253 l 603 0 l 539 0 l 539 253 l 29 253 l 29 298 l 521 997 l 603 997 l 603 311 m 539 311 l 539 595 q 549 939 539 794 l 543 939 q 460 811 532 916 l 110 311 l 539 311 z "},"5":{"ha":793,"x_min":97,"x_max":705,"o":"m 643 926 l 229 926 l 199 576 q 364 596 307 596 q 614 519 523 596 q 705 309 705 442 q 610 72 705 157 q 352 -14 515 -14 q 97 43 189 -14 l 97 113 q 226 61 168 77 q 349 46 284 46 q 557 115 479 46 q 636 298 636 184 q 559 475 636 412 q 351 538 483 538 q 167 511 263 538 l 126 538 l 165 991 l 643 991 l 643 926 z "},"6":{"ha":793,"x_min":89,"x_max":718,"o":"m 422 612 q 640 533 562 612 q 718 308 718 453 q 636 75 718 163 q 414 -14 553 -14 q 176 101 263 -14 q 89 422 89 216 q 202 859 89 710 q 518 1007 316 1007 q 524 1007 521 1007 q 640 991 586 1007 l 640 932 q 521 950 591 950 q 260 829 353 950 q 155 478 167 709 l 164 478 q 281 578 215 544 q 422 612 348 612 m 413 557 q 292 526 351 557 q 198 446 233 495 q 163 346 163 396 q 163 342 163 344 q 197 196 163 266 q 288 86 231 127 q 414 46 345 46 q 587 116 526 46 q 648 315 648 186 q 587 493 648 429 q 421 557 526 557 q 413 557 417 557 z "},"7":{"ha":793,"x_min":74,"x_max":715,"o":"m 74 926 l 74 991 l 715 991 l 715 942 l 306 0 l 227 0 l 635 926 l 74 926 z "},"8":{"ha":793,"x_min":82,"x_max":708,"o":"m 674 770 q 626 634 674 692 q 472 528 578 576 q 655 410 603 473 q 708 256 708 346 q 622 60 708 133 q 389 -14 536 -14 q 162 55 241 -14 q 82 254 82 124 q 313 525 82 433 q 158 634 203 577 q 114 771 114 690 q 114 778 114 774 q 193 943 114 878 q 390 1008 273 1008 q 395 1008 392 1008 q 597 944 521 1008 q 674 770 674 880 m 400 553 q 559 647 511 595 q 607 776 607 699 q 550 900 607 852 q 395 947 493 947 q 239 900 297 947 q 182 771 182 853 q 202 687 182 723 q 263 623 223 652 q 400 553 302 593 m 380 497 q 204 391 256 450 q 151 241 151 332 q 215 99 151 151 q 391 47 278 47 q 571 102 504 47 q 639 246 639 157 q 585 387 639 335 q 380 497 533 439 z "},"9":{"ha":793,"x_min":75,"x_max":703,"o":"m 135 62 q 268 43 199 43 q 531 164 436 43 q 636 517 625 286 l 628 517 q 511 417 579 452 q 367 382 442 382 q 152 458 229 382 q 75 679 75 534 q 159 915 75 823 q 379 1007 243 1007 q 386 1007 382 1007 q 615 891 528 1007 q 703 577 703 775 q 703 571 703 574 q 703 568 703 569 q 590 133 703 279 q 271 -14 477 -14 q 265 -14 268 -14 q 135 4 196 -14 l 135 62 m 379 947 q 209 875 273 947 q 144 682 144 803 q 203 499 144 560 q 372 437 262 437 q 500 468 441 437 q 594 548 559 498 q 629 652 629 599 q 597 800 629 730 q 509 909 566 870 q 379 947 452 947 z "},"\r":{"ha":361,"x_min":0,"x_max":0,"o":""}," ":{"ha":361,"x_min":0,"x_max":0,"o":""},"!":{"ha":334,"x_min":111,"x_max":221,"o":"m 187 256 l 146 256 l 126 991 l 207 991 l 187 256 m 165 119 q 221 53 221 119 q 165 -14 221 -14 q 111 53 111 -14 q 165 119 111 119 z "},"\"":{"ha":490,"x_min":90,"x_max":400,"o":"m 154 633 l 113 633 l 90 991 l 176 991 l 154 633 m 378 633 l 336 633 l 314 991 l 400 991 l 378 633 z "},"#":{"ha":897,"x_min":37,"x_max":860,"o":"m 860 684 l 860 629 l 656 629 l 604 359 l 810 359 l 810 306 l 593 306 l 534 0 l 473 0 l 533 306 l 289 306 l 231 0 l 171 0 l 229 306 l 37 306 l 37 359 l 240 359 l 292 629 l 90 629 l 90 684 l 301 684 l 359 991 l 421 991 l 361 684 l 608 684 l 667 991 l 726 991 l 666 684 l 860 684 m 351 629 l 298 359 l 545 359 l 597 629 l 351 629 z "},"$":{"ha":793,"x_min":111,"x_max":671,"o":"m 419 1054 l 419 925 q 656 876 553 919 l 635 815 q 419 864 539 857 l 419 534 q 618 437 564 490 q 671 296 671 384 q 605 152 671 209 q 419 79 538 94 l 419 -81 l 364 -81 l 364 77 q 231 92 307 77 q 111 126 155 106 l 111 196 q 231 155 160 172 q 364 138 302 138 l 364 482 q 220 541 269 511 q 149 612 171 572 q 127 711 127 653 q 191 853 127 795 q 364 924 255 910 l 364 1054 l 419 1054 m 243 810 q 222 790 243 810 q 201 711 201 770 q 240 616 201 653 q 364 553 278 578 l 364 860 q 243 810 286 850 m 419 142 q 550 193 503 151 q 597 296 597 235 q 555 396 597 358 q 419 461 513 434 l 419 142 z "},"%":{"ha":1121,"x_min":77,"x_max":1044,"o":"m 77 697 q 77 772 77 697 q 125 926 77 847 q 269 1006 174 1006 q 415 924 363 1006 q 467 693 467 843 q 416 463 467 543 q 272 383 365 383 q 128 465 179 383 q 77 697 77 547 m 318 0 l 253 0 l 803 991 l 868 991 l 318 0 m 400 696 q 367 883 400 820 q 269 946 333 946 q 174 884 205 946 q 143 695 143 821 q 174 506 143 568 q 269 443 205 443 q 400 696 400 443 m 654 298 q 654 374 654 298 q 704 528 654 449 q 848 607 754 607 q 993 526 941 607 q 1044 294 1044 445 q 994 64 1044 144 q 850 -16 944 -16 q 705 66 756 -16 q 654 298 654 148 m 847 547 q 752 486 783 547 q 721 297 721 424 q 752 108 721 170 q 847 46 783 46 q 978 297 978 46 q 847 547 978 547 z "},"&":{"ha":990,"x_min":83,"x_max":960,"o":"m 269 606 q 180 797 180 700 q 245 950 180 893 q 417 1007 310 1007 q 586 952 524 1007 q 647 800 647 897 q 600 669 647 729 q 428 538 550 609 l 734 228 q 856 471 815 323 l 921 471 q 779 182 878 304 l 960 0 l 868 0 l 737 134 q 626 44 675 72 q 386 -14 527 -14 q 164 57 245 -14 q 83 252 83 127 q 133 411 83 345 q 319 550 182 476 l 269 606 m 575 802 q 575 834 575 802 q 533 906 575 866 q 416 946 491 946 q 297 907 342 946 q 253 798 253 867 q 280 698 253 744 q 383 581 307 652 q 533 689 492 639 q 575 802 575 739 m 232 422 q 154 257 154 357 q 216 102 154 157 q 392 47 279 47 q 551 77 479 47 q 693 176 623 106 l 366 505 q 232 422 275 457 z "},"'":{"ha":267,"x_min":90,"x_max":176,"o":"m 154 633 l 113 633 l 90 991 l 176 991 l 154 633 z "},"(":{"ha":378,"x_min":56,"x_max":336,"o":"m 129 382 q 335 -220 129 54 l 260 -220 q 108 50 160 -104 q 56 382 56 203 q 108 717 56 560 q 260 991 161 873 l 336 991 q 183 713 237 870 q 129 382 129 557 z "},")":{"ha":378,"x_min":41,"x_max":322,"o":"m 118 991 q 270 714 218 871 q 322 380 322 557 q 270 48 322 202 q 118 -220 218 -105 l 43 -220 q 249 382 249 54 q 195 713 249 557 q 41 991 141 869 l 118 991 z "},"*":{"ha":765,"x_min":71,"x_max":692,"o":"m 403 781 l 677 851 l 692 762 l 424 736 l 591 505 l 507 457 l 378 714 l 256 457 l 171 505 l 335 736 l 71 762 l 83 851 l 355 781 l 329 1055 l 428 1055 l 403 781 z "},"+":{"ha":793,"x_min":75,"x_max":718,"o":"m 424 518 l 718 518 l 718 463 l 424 463 l 424 170 l 368 170 l 368 463 l 75 463 l 75 518 l 368 518 l 368 812 l 424 812 l 424 518 z "},",":{"ha":298,"x_min":46,"x_max":208,"o":"m 200 161 l 208 147 q 90 -179 157 -32 l 46 -179 q 121 161 98 9 l 200 161 z "},"-":{"ha":447,"x_min":62,"x_max":385,"o":"m 385 347 l 62 347 l 62 403 l 385 403 l 385 347 z "},".":{"ha":330,"x_min":110,"x_max":220,"o":"m 164 119 q 220 53 220 119 q 164 -14 220 -14 q 110 53 110 -14 q 164 119 110 119 z "},"/":{"ha":473,"x_min":17,"x_max":457,"o":"m 87 0 l 17 0 l 386 991 l 457 991 l 87 0 z "},":":{"ha":330,"x_min":110,"x_max":220,"o":"m 164 725 q 220 658 220 725 q 205 608 220 624 q 165 591 190 591 q 125 608 140 591 q 110 658 110 624 q 164 725 110 725 m 164 119 q 220 53 220 119 q 164 -14 220 -14 q 110 53 110 -14 q 164 119 110 119 z "},";":{"ha":330,"x_min":52,"x_max":220,"o":"m 164 725 q 220 658 220 725 q 205 608 220 624 q 165 591 190 591 q 125 608 140 591 q 110 658 110 624 q 164 725 110 725 m 52 -179 q 126 161 106 19 l 205 161 l 214 147 q 96 -179 163 -32 l 52 -179 z "},"<":{"ha":793,"x_min":75,"x_max":718,"o":"m 718 761 l 160 486 l 718 245 l 718 180 l 75 463 l 75 504 l 718 825 l 718 761 z "},"=":{"ha":793,"x_min":75,"x_max":718,"o":"m 718 600 l 75 600 l 75 656 l 718 656 l 718 600 m 718 323 l 75 323 l 75 379 l 718 379 l 718 323 z "},">":{"ha":793,"x_min":75,"x_max":718,"o":"m 718 504 l 718 463 l 75 180 l 75 245 l 633 486 l 75 761 l 75 825 l 718 504 z "},"?":{"ha":585,"x_min":39,"x_max":534,"o":"m 268 1006 q 463 939 392 1006 q 534 755 534 872 q 519 666 534 713 q 499 627 514 648 q 475 595 484 606 q 442 562 467 584 q 365 494 409 530 q 299 429 321 458 q 265 365 276 399 q 254 265 254 330 l 254 256 l 199 256 l 199 281 q 224 417 199 365 q 318 530 249 469 l 380 584 q 450 666 429 625 q 471 760 471 707 q 414 897 471 846 q 263 947 358 947 q 63 897 168 947 l 39 951 q 162 995 111 983 q 268 1006 213 1006 m 231 119 q 286 53 286 119 q 231 -14 286 -14 q 176 53 176 -14 q 231 119 176 119 z "},"@":{"ha":1231,"x_min":77,"x_max":1154,"o":"m 578 -134 q 209 2 341 -134 q 77 380 77 138 q 151 693 77 554 q 359 908 224 832 q 662 985 494 985 q 921 924 808 985 q 1093 751 1034 864 q 1154 488 1154 639 q 1093 243 1154 336 q 926 150 1031 150 q 828 186 866 150 q 785 286 791 223 l 782 286 q 699 184 753 219 q 570 150 644 150 q 414 215 469 150 q 359 399 359 281 q 441 623 359 536 q 654 710 524 710 q 848 682 747 710 l 833 368 l 833 347 q 858 240 833 275 q 936 205 882 205 q 1050 284 1006 205 q 1095 493 1095 363 q 1041 722 1095 623 q 888 873 987 821 q 661 926 789 926 q 386 859 505 926 q 203 669 267 791 q 139 385 139 546 q 252 47 139 166 q 574 -72 365 -72 q 699 -60 630 -72 q 859 -12 768 -47 l 859 -79 q 578 -134 720 -134 m 650 656 q 489 587 549 656 q 429 400 429 517 q 467 254 429 302 q 585 205 505 205 q 770 440 758 205 l 781 637 q 650 656 726 656 z "},"A":{"ha":833,"x_min":0,"x_max":833,"o":"m 833 0 l 755 0 l 618 350 l 215 350 l 77 0 l 0 0 l 399 996 l 443 996 l 833 0 m 595 412 l 460 770 q 419 886 444 809 q 379 768 401 824 l 240 412 l 595 412 z "},"B":{"ha":871,"x_min":140,"x_max":793,"o":"m 140 991 l 412 991 q 681 929 594 991 q 768 741 768 867 q 715 597 768 654 q 562 524 663 540 l 562 519 q 737 445 681 502 q 793 285 793 387 q 702 74 793 149 q 444 0 612 0 l 140 0 l 140 991 m 210 930 l 210 550 l 428 550 q 631 596 567 550 q 694 741 694 642 q 624 885 694 840 q 410 930 553 930 l 210 930 m 210 489 l 210 61 l 443 61 q 718 285 718 61 q 428 489 718 489 l 210 489 z "},"C":{"ha":863,"x_min":87,"x_max":819,"o":"m 536 -14 q 208 122 328 -14 q 87 498 87 257 q 87 509 87 503 q 145 766 87 652 q 309 943 202 880 q 551 1006 416 1006 q 559 1006 555 1006 q 819 951 703 1006 l 791 889 q 564 943 682 943 q 270 824 377 943 q 163 495 163 705 q 264 168 163 285 q 553 50 365 50 q 782 82 676 50 l 782 21 q 536 -14 684 -14 z "},"D":{"ha":981,"x_min":140,"x_max":893,"o":"m 140 991 l 408 991 q 769 867 646 991 q 893 499 893 743 q 763 128 893 256 q 378 0 632 0 l 140 0 l 140 991 m 210 930 l 210 61 l 374 61 q 818 503 818 61 q 710 823 818 715 q 392 930 602 930 l 210 930 z "},"E":{"ha":766,"x_min":140,"x_max":682,"o":"m 682 928 l 210 928 l 210 553 l 656 553 l 656 489 l 210 489 l 210 63 l 682 63 l 682 0 l 140 0 l 140 991 l 682 991 l 682 928 z "},"F":{"ha":697,"x_min":140,"x_max":684,"o":"m 684 928 l 210 928 l 210 507 l 656 507 l 656 443 l 210 443 l 210 0 l 140 0 l 140 991 l 684 991 l 684 928 z "},"G":{"ha":1004,"x_min":87,"x_max":896,"o":"m 896 500 l 896 47 q 572 -14 755 -14 q 212 119 338 -14 q 87 494 87 252 q 149 762 87 646 q 327 943 211 879 q 599 1007 442 1007 q 884 947 755 1007 l 856 885 q 589 945 728 945 q 278 824 393 945 q 163 497 163 703 q 272 161 163 274 q 593 47 380 47 q 825 86 730 47 l 825 435 l 530 435 l 530 500 l 896 500 z "},"H":{"ha":999,"x_min":140,"x_max":859,"o":"m 859 0 l 789 0 l 789 488 l 210 488 l 210 0 l 140 0 l 140 991 l 210 991 l 210 551 l 789 551 l 789 991 l 859 991 l 859 0 z "},"I":{"ha":350,"x_min":140,"x_max":210,"o":"m 210 0 l 140 0 l 140 991 l 210 991 l 210 0 z "},"J":{"ha":343,"x_min":-125,"x_max":210,"o":"m 210 991 l 210 0 q -22 -250 210 -250 q -125 -232 -85 -250 l -125 -172 q -24 -186 -71 -186 q 140 -6 140 -186 l 140 991 l 210 991 z "},"K":{"ha":807,"x_min":140,"x_max":807,"o":"m 210 0 l 140 0 l 140 991 l 210 991 l 210 476 l 319 586 l 708 991 l 796 991 l 390 572 l 807 0 l 722 0 l 342 524 l 210 407 l 210 0 z "},"L":{"ha":713,"x_min":140,"x_max":682,"o":"m 210 64 l 682 64 l 682 0 l 140 0 l 140 991 l 210 991 l 210 64 z "},"M":{"ha":1198,"x_min":140,"x_max":1059,"o":"m 1059 0 l 989 0 l 989 751 q 997 914 989 830 l 991 914 l 621 0 l 576 0 l 207 916 l 201 916 q 207 743 207 825 l 207 0 l 140 0 l 140 991 l 248 991 l 599 119 l 603 119 l 954 991 l 1059 991 l 1059 0 z "},"N":{"ha":1002,"x_min":140,"x_max":861,"o":"m 861 0 l 791 0 l 204 880 l 199 880 q 207 643 207 723 l 207 0 l 140 0 l 140 991 l 210 991 l 796 113 l 800 113 q 794 345 794 235 l 794 991 l 861 991 l 861 0 z "},"O":{"ha":1061,"x_min":87,"x_max":974,"o":"m 531 -14 q 427 -14 531 -14 q 205 123 323 -14 q 87 498 87 260 q 207 871 87 736 q 533 1007 326 1007 q 857 870 740 1007 q 974 497 974 733 q 856 123 974 260 q 531 -14 738 -14 m 899 497 q 899 604 899 497 q 804 826 899 711 q 532 940 709 940 q 259 825 355 940 q 163 497 163 709 q 258 168 163 285 q 531 52 353 52 q 804 167 709 52 q 899 497 899 282 z "},"P":{"ha":812,"x_min":140,"x_max":737,"o":"m 140 991 l 383 991 q 737 707 737 991 q 639 486 737 563 q 363 410 541 410 l 210 410 l 210 0 l 140 0 l 140 991 m 210 929 l 210 469 l 346 469 q 588 524 514 469 q 662 699 662 580 q 592 874 662 819 q 374 929 522 929 l 210 929 z "},"Q":{"ha":1061,"x_min":87,"x_max":974,"o":"m 530 -14 q 205 123 323 -14 q 87 498 87 260 q 207 871 87 736 q 533 1007 326 1007 q 857 870 740 1007 q 974 497 974 733 q 888 167 974 298 q 652 0 803 37 l 878 -236 l 765 -236 l 574 -12 l 551 -14 l 530 -14 m 899 497 q 899 604 899 497 q 804 826 899 711 q 532 940 709 940 q 259 825 355 940 q 163 497 163 709 q 258 168 163 285 q 531 52 353 52 q 804 167 709 52 q 899 497 899 282 z "},"R":{"ha":825,"x_min":140,"x_max":794,"o":"m 140 991 l 376 991 q 649 924 560 991 q 737 718 737 856 q 684 549 737 617 q 525 452 631 481 l 794 0 l 711 0 l 456 432 l 210 432 l 210 0 l 140 0 l 140 991 m 210 929 l 210 492 l 399 492 q 594 548 526 492 q 662 715 662 604 q 594 878 662 827 q 374 929 527 929 l 210 929 z "},"S":{"ha":757,"x_min":75,"x_max":688,"o":"m 349 50 q 543 106 471 50 q 614 253 614 161 q 590 346 614 309 q 513 413 567 383 q 355 479 460 444 q 145 592 203 532 q 87 759 87 652 q 174 935 87 865 q 400 1006 262 1006 q 661 953 538 1006 l 636 893 q 402 945 514 945 q 225 894 290 945 q 160 755 160 843 q 180 665 160 702 q 245 602 200 630 q 401 534 292 574 q 575 457 516 495 q 661 371 634 419 q 688 256 688 323 q 596 59 688 132 q 354 -14 505 -14 q 75 26 173 -14 l 75 96 q 349 50 179 50 z "},"T":{"ha":728,"x_min":6,"x_max":721,"o":"m 721 926 l 399 926 l 399 0 l 329 0 l 329 926 l 6 926 l 6 991 l 721 991 l 721 926 z "},"U":{"ha":999,"x_min":129,"x_max":869,"o":"m 869 991 l 869 350 q 771 83 869 180 q 497 -14 672 -14 q 225 83 321 -14 q 129 353 129 179 l 129 991 l 199 991 l 199 350 q 278 127 199 208 q 500 47 357 47 q 722 125 644 47 q 800 343 800 203 l 800 991 l 869 991 z "},"V":{"ha":802,"x_min":0,"x_max":802,"o":"m 431 0 l 370 0 l 0 991 l 74 991 l 323 317 q 400 87 381 162 q 454 245 412 134 l 726 991 l 802 991 l 431 0 z "},"W":{"ha":1239,"x_min":35,"x_max":1204,"o":"m 930 0 l 873 0 l 656 765 q 615 920 628 860 q 586 790 603 855 q 366 0 569 726 l 307 0 l 35 991 l 107 991 l 281 353 q 339 110 328 172 q 408 390 355 201 l 578 991 l 654 991 l 853 301 q 903 109 886 187 q 925 212 911 157 q 1135 991 939 267 l 1204 991 l 930 0 z "},"X":{"ha":747,"x_min":0,"x_max":747,"o":"m 415 518 l 747 0 l 667 0 l 375 463 l 77 0 l 0 0 l 334 517 l 31 991 l 109 991 l 376 567 l 648 991 l 722 991 l 415 518 z "},"Y":{"ha":733,"x_min":0,"x_max":733,"o":"m 403 0 l 332 0 l 332 378 l 0 991 l 79 991 l 368 449 l 658 991 l 733 991 l 403 383 l 403 0 z "},"Z":{"ha":800,"x_min":56,"x_max":745,"o":"m 745 64 l 745 0 l 56 0 l 56 52 l 636 926 l 82 926 l 82 991 l 729 991 l 729 940 l 147 64 l 745 64 z "},"[":{"ha":443,"x_min":118,"x_max":408,"o":"m 408 928 l 184 928 l 184 -155 l 408 -155 l 408 -220 l 118 -220 l 118 991 l 408 991 l 408 928 z "},"\\":{"ha":473,"x_min":17,"x_max":457,"o":"m 457 0 l 387 0 l 17 991 l 86 991 l 457 0 z "},"]":{"ha":443,"x_min":35,"x_max":325,"o":"m 325 -220 l 35 -220 l 35 -155 l 258 -155 l 258 928 l 35 928 l 35 991 l 325 991 l 325 -220 z "},"^":{"ha":793,"x_min":60,"x_max":733,"o":"m 733 380 l 665 380 l 397 917 l 127 380 l 60 380 l 375 999 l 421 999 l 733 380 z "},"_":{"ha":571,"x_min":-3,"x_max":574,"o":"m 574 -180 l -3 -180 l -3 -125 l 574 -125 l 574 -180 z "},"`":{"ha":802,"x_min":267,"x_max":526,"o":"m 267 1064 l 363 1064 q 430 967 380 1031 q 526 852 479 903 l 526 842 l 479 842 q 353 957 416 894 q 267 1053 290 1019 l 267 1064 z "},"a":{"ha":736,"x_min":66,"x_max":621,"o":"m 139 693 q 381 750 260 750 q 561 687 501 750 q 621 490 621 623 l 621 0 l 571 0 l 554 117 l 549 117 q 434 16 492 45 q 296 -14 376 -14 q 126 42 187 -14 q 66 200 66 97 q 156 363 66 304 q 416 427 246 423 l 557 431 l 557 479 q 513 639 557 587 q 373 692 470 692 q 164 635 276 692 l 139 693 m 138 193 q 180 86 138 124 q 300 47 222 47 q 486 115 418 47 q 554 302 554 183 l 554 375 l 425 370 q 204 321 270 362 q 138 193 138 280 z "},"b":{"ha":827,"x_min":123,"x_max":746,"o":"m 191 1055 l 191 790 q 188 680 191 724 l 186 623 l 191 623 q 292 720 233 689 q 435 751 351 751 q 667 654 589 751 q 746 372 746 557 q 663 86 746 186 q 432 -14 581 -14 q 290 19 353 -14 q 191 111 227 52 l 184 111 l 165 0 l 123 0 l 123 1055 l 191 1055 m 191 370 l 191 358 q 249 119 191 191 q 430 46 308 46 q 613 130 551 46 q 674 371 674 214 q 433 690 674 690 q 247 616 304 690 q 191 370 191 541 z "},"c":{"ha":659,"x_min":81,"x_max":611,"o":"m 418 -14 q 170 86 260 -14 q 81 366 81 186 q 173 649 81 547 q 428 751 266 751 q 611 718 524 751 l 593 658 q 427 690 497 690 q 221 607 292 690 q 151 370 151 524 q 221 132 151 216 q 416 47 291 47 q 603 83 515 47 l 603 21 q 418 -14 533 -14 z "},"d":{"ha":827,"x_min":81,"x_max":703,"o":"m 703 0 l 658 0 l 642 113 l 636 113 q 397 -14 552 -14 q 161 82 242 -14 q 81 363 81 177 q 161 650 81 549 q 393 751 241 751 q 533 722 475 751 q 636 623 591 692 l 640 623 q 636 790 636 708 l 636 1055 l 703 1055 l 703 0 m 636 358 l 636 370 q 578 616 636 541 q 397 690 521 690 q 212 606 273 690 q 151 359 151 522 q 395 46 151 46 q 578 119 519 46 q 636 358 636 191 z "},"e":{"ha":762,"x_min":81,"x_max":682,"o":"m 421 -14 q 170 85 261 -14 q 81 361 81 184 q 167 645 81 538 q 401 751 254 751 q 607 660 532 751 q 682 414 682 569 l 682 359 l 151 359 q 222 127 153 208 q 421 47 292 47 q 534 57 486 47 q 653 94 583 66 l 653 33 q 538 -4 591 6 q 421 -14 485 -14 m 611 419 q 555 620 611 547 q 396 692 498 692 q 230 621 294 692 q 155 419 166 551 l 611 419 z "},"f":{"ha":416,"x_min":20,"x_max":492,"o":"m 157 800 q 207 1000 157 937 q 370 1063 257 1063 q 492 1044 431 1063 l 476 986 q 368 1003 423 1003 q 257 957 290 1003 q 224 806 224 910 l 224 737 l 397 737 l 397 679 l 224 679 l 224 0 l 157 0 l 157 679 l 20 679 l 20 718 l 157 743 l 157 800 z "},"g":{"ha":726,"x_min":31,"x_max":699,"o":"m 310 102 l 439 102 q 623 53 559 102 q 686 -90 686 5 q 592 -270 686 -207 q 322 -334 497 -334 q 107 -280 184 -334 q 31 -131 31 -227 q 77 -6 31 -56 q 205 63 123 45 q 152 104 172 78 q 132 164 132 131 q 227 294 132 239 q 126 377 162 321 q 90 507 90 434 q 160 685 90 618 q 350 751 231 751 q 463 737 423 751 l 699 737 l 699 690 l 546 681 q 607 514 607 605 q 536 341 607 407 q 346 275 466 275 q 275 279 296 275 q 193 170 193 237 q 220 118 193 134 q 310 102 248 102 m 539 512 q 539 557 539 512 q 489 651 539 603 q 349 699 439 699 q 209 648 259 699 q 158 509 158 597 q 210 374 158 422 q 351 328 262 328 q 490 374 441 328 q 539 512 539 421 m 425 35 l 304 35 q 102 -125 102 35 q 328 -277 102 -277 q 618 -92 618 -277 q 572 5 618 -25 q 425 35 527 35 z "},"h":{"ha":819,"x_min":123,"x_max":704,"o":"m 453 751 q 704 482 704 751 l 704 0 l 637 0 l 637 478 q 591 640 637 589 q 446 690 545 690 q 253 624 315 690 q 191 407 191 557 l 191 0 l 123 0 l 123 1055 l 191 1055 l 191 720 l 187 625 l 192 625 q 296 721 233 691 q 453 751 359 751 z "},"i":{"ha":314,"x_min":114,"x_max":201,"o":"m 157 1007 q 190 990 178 1007 q 201 942 201 973 q 190 894 201 911 q 157 876 178 876 q 114 942 114 876 q 157 1007 114 1007 m 191 0 l 123 0 l 123 737 l 191 737 l 191 0 z "},"j":{"ha":314,"x_min":-66,"x_max":201,"o":"m 157 1007 q 190 990 178 1007 q 201 942 201 973 q 190 894 201 911 q 157 876 178 876 q 114 942 114 876 q 157 1007 114 1007 m 191 737 l 191 -143 q 148 -284 191 -235 q 25 -334 104 -334 q -66 -317 -30 -334 l -66 -258 q 21 -272 -19 -272 q 123 -153 123 -272 l 123 737 l 191 737 z "},"k":{"ha":671,"x_min":123,"x_max":671,"o":"m 191 0 l 123 0 l 123 1055 l 191 1055 l 191 526 l 186 323 l 189 323 l 566 737 l 647 737 l 357 422 l 671 0 l 591 0 l 311 372 l 191 262 l 191 0 z "},"l":{"ha":314,"x_min":123,"x_max":191,"o":"m 191 0 l 123 0 l 123 1055 l 191 1055 l 191 0 z "},"m":{"ha":1226,"x_min":123,"x_max":1111,"o":"m 869 751 q 1051 686 991 751 q 1111 482 1111 621 l 1111 0 l 1044 0 l 1044 484 q 1003 641 1044 591 q 873 690 961 690 q 706 628 760 690 q 652 432 652 566 l 652 0 l 583 0 l 583 504 q 412 690 583 690 q 243 623 296 690 q 191 407 191 555 l 191 0 l 123 0 l 123 737 l 179 737 l 193 636 l 197 636 q 284 721 228 690 q 408 751 340 751 q 632 621 583 751 l 635 621 q 731 718 671 684 q 869 751 792 751 z "},"n":{"ha":819,"x_min":123,"x_max":704,"o":"m 453 751 q 704 482 704 751 l 704 0 l 637 0 l 637 478 q 591 640 637 589 q 446 690 545 690 q 253 624 315 690 q 191 407 191 557 l 191 0 l 123 0 l 123 737 l 180 737 l 193 636 l 197 636 q 453 751 270 751 z "},"o":{"ha":814,"x_min":81,"x_max":733,"o":"m 81 370 q 168 650 81 549 q 408 751 256 751 q 647 649 560 751 q 733 368 733 547 q 646 88 733 189 q 404 -14 558 -14 q 397 -14 401 -14 q 169 90 256 -14 q 81 359 81 194 q 81 370 81 365 m 407 47 q 468 47 407 47 q 595 132 529 47 q 662 370 662 217 q 594 607 662 523 q 405 690 527 690 q 217 607 283 690 q 151 371 151 523 q 218 132 151 218 q 407 47 285 47 z "},"p":{"ha":827,"x_min":123,"x_max":746,"o":"m 440 751 q 668 653 589 751 q 746 371 746 555 q 664 87 746 187 q 439 -14 581 -14 q 191 114 269 -14 l 186 114 l 188 57 q 191 -53 191 13 l 191 -334 l 123 -334 l 123 737 l 180 737 l 193 632 l 197 632 q 440 751 274 751 m 191 389 l 191 367 q 248 120 191 194 q 437 46 306 46 q 612 130 551 46 q 674 366 674 214 q 440 690 674 690 q 251 620 312 690 q 191 389 191 549 z "},"q":{"ha":827,"x_min":81,"x_max":703,"o":"m 386 -14 q 160 83 240 -14 q 81 364 81 180 q 161 650 81 548 q 390 751 241 751 q 629 633 550 751 l 633 633 l 646 737 l 703 737 l 703 -334 l 636 -334 l 636 -53 q 640 115 636 30 l 636 115 q 386 -14 556 -14 m 636 368 l 636 376 q 578 616 636 543 q 398 690 520 690 q 213 606 275 690 q 151 363 151 522 q 212 125 151 205 q 387 46 272 46 q 579 120 522 46 q 636 368 636 194 z "},"r":{"ha":541,"x_min":123,"x_max":514,"o":"m 414 751 q 514 742 458 751 l 501 677 q 406 689 456 689 q 251 609 311 689 q 191 407 191 528 l 191 0 l 123 0 l 123 737 l 180 737 l 187 604 l 192 604 q 289 718 239 687 q 414 751 340 751 z "},"s":{"ha":647,"x_min":57,"x_max":581,"o":"m 57 104 q 282 49 165 49 q 456 84 399 49 q 514 179 514 120 q 469 276 514 238 q 317 351 423 313 q 165 418 212 389 q 97 485 119 448 q 75 572 75 522 q 144 703 75 654 q 337 751 215 751 q 566 707 458 751 l 541 646 q 339 690 429 690 q 196 661 249 690 q 143 575 143 631 q 184 486 143 520 q 334 412 225 451 q 490 343 444 373 q 581 190 581 286 q 505 40 581 93 q 287 -14 430 -14 q 57 32 143 -14 l 57 104 z "},"t":{"ha":465,"x_min":17,"x_max":429,"o":"m 195 737 l 411 737 l 411 679 l 195 679 l 195 212 q 224 87 195 127 q 319 46 254 46 q 429 57 383 46 l 429 3 q 317 -14 380 -14 q 173 39 219 -14 q 126 203 126 91 l 126 679 l 17 679 l 17 718 l 126 749 l 160 916 l 195 916 l 195 737 z "},"u":{"ha":819,"x_min":115,"x_max":696,"o":"m 696 0 l 639 0 l 627 102 l 623 102 q 367 -14 550 -14 q 115 256 115 -14 l 115 737 l 182 737 l 182 260 q 228 98 182 149 q 374 47 275 47 q 567 114 505 47 q 629 330 629 180 l 629 737 l 696 737 l 696 0 z "},"v":{"ha":637,"x_min":0,"x_max":637,"o":"m 353 0 l 285 0 l 0 737 l 69 737 l 260 236 q 317 67 298 137 l 321 67 q 378 237 347 158 l 568 737 l 637 737 l 353 0 z "},"w":{"ha":1004,"x_min":21,"x_max":983,"o":"m 783 0 l 713 0 l 551 493 q 511 640 535 546 l 507 640 l 493 590 l 463 492 l 298 0 l 232 0 l 21 737 l 93 737 l 211 310 q 265 77 250 160 l 269 77 q 328 288 309 233 l 479 737 l 541 737 l 685 289 q 745 78 733 132 l 749 78 q 803 314 753 119 l 916 737 l 983 737 l 783 0 z "},"x":{"ha":692,"x_min":37,"x_max":654,"o":"m 383 379 l 654 0 l 576 0 l 345 329 l 111 0 l 37 0 l 304 379 l 47 737 l 125 737 l 345 427 l 562 737 l 636 737 l 383 379 z "},"y":{"ha":637,"x_min":0,"x_max":637,"o":"m 89 -334 q 3 -319 50 -334 l 3 -261 q 87 -272 41 -272 q 196 -205 155 -272 q 245 -96 218 -170 l 282 0 l 0 737 l 69 737 l 225 323 q 315 66 294 138 l 319 66 q 412 328 344 142 l 568 737 l 637 737 l 307 -119 q 240 -260 268 -223 q 89 -334 186 -334 z "},"z":{"ha":640,"x_min":56,"x_max":582,"o":"m 582 60 l 582 0 l 56 0 l 56 43 l 493 677 l 87 677 l 87 737 l 581 737 l 581 694 l 140 60 l 582 60 z "},"{":{"ha":490,"x_min":41,"x_max":441,"o":"m 264 785 l 264 578 q 234 447 264 490 q 138 389 205 403 l 138 383 q 234 326 203 370 q 264 200 264 283 l 264 -18 q 305 -122 264 -89 q 441 -158 346 -156 l 441 -220 q 253 -169 309 -220 q 197 -12 197 -118 l 197 216 q 41 358 197 355 l 41 412 q 160 447 123 414 q 197 547 197 479 l 197 785 q 441 991 197 987 l 441 930 q 306 891 349 927 q 264 785 264 856 z "},"|":{"ha":751,"x_min":345,"x_max":407,"o":"m 407 -343 l 345 -343 l 345 1059 l 407 1059 l 407 -343 z "},"}":{"ha":490,"x_min":49,"x_max":449,"o":"m 49 991 q 230 939 168 991 q 293 785 293 886 l 293 547 q 330 447 293 479 q 449 412 368 414 l 449 358 q 293 216 293 355 l 293 -12 q 237 -169 293 -117 q 49 -220 181 -220 l 49 -158 q 185 -123 143 -157 q 227 -18 227 -89 l 227 200 q 257 326 227 283 q 353 383 287 370 l 353 389 q 256 446 286 403 q 227 578 227 490 l 227 785 q 184 891 227 855 q 49 930 142 927 l 49 991 z "},"~":{"ha":793,"x_min":75,"x_max":718,"o":"m 233 562 q 311 553 273 562 q 416 514 349 543 q 566 475 501 475 q 639 495 603 475 q 718 559 675 515 l 718 494 q 562 418 642 418 q 376 467 481 418 q 227 505 292 505 q 153 484 193 505 q 75 424 113 463 l 75 488 q 233 562 149 562 z "},"¡":{"ha":334,"x_min":113,"x_max":222,"o":"m 167 751 q 222 685 222 751 q 167 618 222 618 q 127 634 142 618 q 113 685 113 650 q 167 751 113 751 m 207 -254 l 126 -254 l 146 482 l 187 482 l 207 -254 z "},"¢":{"ha":793,"x_min":143,"x_max":659,"o":"m 464 893 l 473 893 q 659 856 564 893 l 639 799 q 478 833 548 833 q 282 750 351 833 q 214 510 214 667 q 281 270 214 354 q 472 186 349 186 q 653 225 562 186 l 653 163 q 472 125 578 125 l 464 125 l 464 -14 l 408 -14 l 408 129 q 212 248 282 149 q 143 505 143 346 q 213 764 143 663 q 408 888 283 865 l 408 1006 l 464 1006 l 464 893 z "},"£":{"ha":793,"x_min":53,"x_max":728,"o":"m 211 514 l 211 715 q 277 929 211 854 q 465 1004 344 1004 q 692 958 586 1004 l 667 900 q 467 945 562 945 q 326 889 372 945 q 279 718 279 834 l 279 514 l 558 514 l 558 458 l 279 458 l 279 285 q 255 151 279 205 q 179 64 231 97 l 728 64 l 728 0 l 53 0 l 53 57 q 169 132 127 71 q 211 283 211 192 l 211 458 l 67 458 l 67 514 l 211 514 z "},"¥":{"ha":793,"x_min":29,"x_max":762,"o":"m 661 457 l 661 401 l 432 401 l 432 262 l 661 262 l 661 207 l 432 207 l 432 0 l 361 0 l 361 207 l 132 207 l 132 262 l 361 262 l 361 401 l 132 401 l 132 457 l 321 457 l 29 991 l 109 991 l 397 452 l 688 991 l 762 991 l 469 457 l 661 457 z "},"¦":{"ha":751,"x_min":345,"x_max":407,"o":"m 407 541 l 345 541 l 345 1059 l 407 1059 l 407 541 m 407 -343 l 345 -343 l 345 175 l 407 175 l 407 -343 z "},"§":{"ha":717,"x_min":87,"x_max":612,"o":"m 87 107 q 316 54 210 54 q 480 88 422 54 q 538 183 538 121 q 514 251 536 224 q 332 340 492 279 q 147 436 196 391 q 98 551 98 483 q 133 655 98 608 q 227 728 167 702 q 141 798 168 760 q 115 889 115 835 q 184 1014 115 968 q 372 1059 252 1059 q 599 1015 491 1059 l 575 961 q 470 992 517 983 q 370 1002 423 1002 q 231 972 280 1002 q 182 890 182 942 q 198 831 182 853 q 254 788 215 808 q 385 736 294 767 q 563 646 513 692 q 612 530 612 600 q 486 345 612 412 q 575 278 547 315 q 603 187 603 241 q 527 47 603 96 q 322 -3 450 -3 q 87 43 194 -3 l 87 107 m 289 700 q 200 646 233 684 q 167 561 167 608 q 188 489 167 515 q 258 439 209 463 q 429 371 308 414 q 515 437 485 399 q 545 518 545 476 q 524 588 545 561 q 449 641 503 614 q 289 700 395 666 z "},"¨":{"ha":802,"x_min":228,"x_max":572,"o":"m 271 1000 q 314 942 314 1000 q 271 884 314 884 q 228 942 228 884 q 238 986 228 972 q 271 1000 248 1000 m 529 1000 q 572 942 572 1000 q 529 884 572 884 q 486 942 486 884 q 496 986 486 972 q 529 1000 507 1000 z "},"©":{"ha":1156,"x_min":67,"x_max":1088,"o":"m 578 -14 q 508 -14 578 -14 q 319 56 437 -14 q 134 244 200 126 q 67 495 67 361 q 136 749 67 629 q 323 938 204 869 q 577 1006 441 1006 q 832 938 713 1006 q 1020 750 951 869 q 1088 496 1088 631 q 1021 244 1088 361 q 837 56 955 126 q 578 -14 718 -14 m 1025 494 q 1025 554 1025 494 q 966 716 1025 613 q 804 881 908 819 q 579 943 700 943 q 355 883 459 943 q 191 718 250 822 q 131 494 131 614 q 191 272 131 374 q 354 109 250 170 q 578 49 457 49 q 801 109 699 49 q 964 272 904 169 q 1025 494 1025 375 m 596 189 q 400 268 469 189 q 332 489 332 346 q 407 716 332 631 q 608 802 482 802 q 762 766 690 802 l 737 710 q 608 741 671 741 q 457 676 512 741 q 403 497 403 612 q 603 250 403 250 q 737 279 661 250 l 737 220 q 596 189 668 189 z "},"«":{"ha":600,"x_min":56,"x_max":551,"o":"m 307 606 l 135 359 l 307 114 l 265 85 l 56 350 l 56 368 l 265 635 l 307 606 m 551 606 l 379 359 l 551 114 l 510 85 l 300 350 l 300 368 l 510 635 l 551 606 z "},"¬":{"ha":793,"x_min":75,"x_max":704,"o":"m 704 183 l 648 183 l 648 463 l 75 463 l 75 518 l 704 518 l 704 183 z "},"­":{"ha":447,"x_min":62,"x_max":385,"o":"m 385 347 l 62 347 l 62 403 l 385 403 l 385 347 z "},"®":{"ha":1156,"x_min":67,"x_max":1088,"o":"m 578 -14 q 508 -14 578 -14 q 319 56 437 -14 q 134 244 200 126 q 67 495 67 361 q 136 749 67 629 q 323 938 204 869 q 577 1006 441 1006 q 832 938 713 1006 q 1020 750 951 869 q 1088 496 1088 631 q 1021 244 1088 361 q 837 56 955 126 q 578 -14 718 -14 m 1025 494 q 1025 554 1025 494 q 966 716 1025 613 q 804 881 908 819 q 579 943 700 943 q 355 883 459 943 q 191 718 250 822 q 131 494 131 614 q 191 272 131 374 q 354 109 250 170 q 578 49 457 49 q 801 109 699 49 q 964 272 904 169 q 1025 494 1025 375 m 412 794 l 555 794 q 707 751 654 794 q 760 623 760 709 q 733 528 760 569 q 658 464 707 487 l 819 197 l 737 197 l 595 441 l 481 441 l 481 197 l 412 197 l 412 794 m 481 736 l 481 496 l 557 496 q 654 528 619 496 q 689 619 689 559 q 555 736 689 736 l 481 736 z "},"¯":{"ha":694,"x_min":-4,"x_max":699,"o":"m 699 1055 l -4 1055 l -4 1111 l 699 1111 l 699 1055 z "},"°":{"ha":595,"x_min":94,"x_max":500,"o":"m 153 949 q 182 977 153 949 q 297 1006 212 1006 q 441 949 382 1006 q 500 803 500 892 q 441 656 500 713 q 296 600 382 600 q 151 656 210 600 q 94 803 94 713 q 153 949 94 892 m 195 907 q 155 802 155 863 q 196 698 155 741 q 296 656 237 656 q 397 698 355 656 q 439 803 439 740 q 398 908 439 865 q 297 950 357 950 q 195 907 236 950 z "},"±":{"ha":793,"x_min":75,"x_max":718,"o":"m 424 518 l 718 518 l 718 463 l 424 463 l 424 170 l 368 170 l 368 463 l 75 463 l 75 518 l 368 518 l 368 812 l 424 812 l 424 518 m 718 0 l 75 0 l 75 56 l 718 56 l 718 0 z "},"²":{"ha":467,"x_min":36,"x_max":427,"o":"m 236 1006 q 368 963 320 1006 q 415 844 415 920 q 379 726 415 785 q 333 665 361 697 q 123 457 304 633 l 427 457 l 427 397 l 36 397 l 36 450 l 200 611 q 317 742 285 693 q 349 841 349 791 q 317 919 349 891 q 233 947 286 947 q 86 892 160 947 l 53 936 q 236 1006 133 1006 z "},"³":{"ha":467,"x_min":28,"x_max":435,"o":"m 233 1006 q 368 965 319 1006 q 418 854 418 924 q 388 766 418 802 q 309 714 359 729 q 435 571 435 684 q 375 434 435 483 q 212 386 315 386 q 28 427 109 386 l 28 486 q 203 444 121 444 q 326 477 286 444 q 367 568 367 510 q 327 652 367 626 q 205 679 287 679 l 117 679 l 117 736 l 208 736 q 315 765 279 736 q 351 843 351 794 q 319 920 351 892 q 233 947 288 947 q 66 895 147 947 l 35 942 q 233 1006 123 1006 z "},"´":{"ha":802,"x_min":267,"x_max":526,"o":"m 526 1064 l 526 1053 q 443 959 502 1017 q 314 842 384 900 l 267 842 l 267 852 q 364 968 315 905 q 431 1064 412 1031 l 526 1064 z "},"¶":{"ha":909,"x_min":77,"x_max":750,"o":"m 750 -176 l 682 -176 l 682 991 l 528 991 l 528 -176 l 460 -176 l 460 379 q 361 367 416 367 q 146 451 215 367 q 77 709 77 535 q 151 969 77 884 q 382 1055 225 1055 l 750 1055 l 750 -176 z "},"·":{"ha":330,"x_min":110,"x_max":220,"o":"m 164 555 q 220 489 220 555 q 164 422 220 422 q 110 489 110 422 q 164 555 110 555 z "},"¸":{"ha":285,"x_min":29,"x_max":267,"o":"m 267 -197 q 221 -299 267 -264 q 93 -334 176 -334 q 29 -326 47 -334 l 29 -267 q 97 -273 49 -273 q 172 -254 144 -273 q 200 -200 200 -235 q 69 -118 200 -136 l 132 0 l 197 0 l 153 -79 q 267 -197 267 -104 z "},"¹":{"ha":467,"x_min":52,"x_max":300,"o":"m 300 397 l 233 397 l 233 768 q 241 926 233 836 q 83 828 222 909 l 52 880 l 237 991 l 300 991 l 300 397 z "},"»":{"ha":600,"x_min":49,"x_max":545,"o":"m 300 370 l 300 351 l 90 85 l 49 114 l 221 359 l 49 606 l 90 635 l 300 370 m 545 370 l 545 351 l 335 85 l 293 114 l 465 359 l 293 606 l 335 635 l 545 370 z "},"¼":{"ha":1028,"x_min":40,"x_max":944,"o":"m 288 397 l 222 397 l 222 768 q 230 926 222 836 q 72 828 211 909 l 40 880 l 226 991 l 288 991 l 288 397 m 229 0 l 165 0 l 715 991 l 779 991 l 229 0 m 857 217 l 944 217 l 944 164 l 857 164 l 857 0 l 795 0 l 795 164 l 515 164 l 515 205 l 791 599 l 857 599 l 857 217 m 795 217 l 795 367 q 801 524 795 452 q 783 495 796 514 q 586 217 770 477 l 795 217 z "},"½":{"ha":1028,"x_min":7,"x_max":951,"o":"m 256 397 l 189 397 l 189 768 q 197 926 189 836 q 39 828 178 909 l 7 880 l 193 991 l 256 991 l 256 397 m 178 0 l 114 0 l 663 991 l 728 991 l 178 0 m 761 609 q 892 566 845 609 q 940 448 940 523 q 857 268 940 359 q 648 60 831 239 l 951 60 l 951 0 l 561 0 l 561 54 l 725 214 q 843 347 812 299 q 873 445 873 395 q 842 523 873 494 q 758 551 811 551 q 611 495 684 551 l 578 539 q 761 609 658 609 z "},"¾":{"ha":1028,"x_min":28,"x_max":1014,"o":"m 233 1006 q 368 965 319 1006 q 418 854 418 924 q 388 766 418 802 q 309 714 359 729 q 435 571 435 684 q 375 434 435 483 q 212 386 315 386 q 28 427 109 386 l 28 486 q 203 444 121 444 q 326 477 286 444 q 367 568 367 510 q 327 652 367 626 q 205 679 287 679 l 117 679 l 117 736 l 208 736 q 315 765 279 736 q 351 843 351 794 q 319 920 351 892 q 233 947 288 947 q 66 895 147 947 l 35 942 q 233 1006 123 1006 m 332 0 l 268 0 l 818 991 l 882 991 l 332 0 m 926 217 l 1014 217 l 1014 164 l 926 164 l 926 0 l 865 0 l 865 164 l 585 164 l 585 205 l 861 599 l 926 599 l 926 217 m 865 217 l 865 367 q 871 524 865 452 q 853 495 866 514 q 656 217 840 477 l 865 217 z "},"¿":{"ha":585,"x_min":50,"x_max":546,"o":"m 353 751 q 408 685 408 751 q 353 618 408 618 q 313 634 328 618 q 298 685 298 650 q 353 751 298 751 m 386 482 l 386 457 q 359 318 386 372 q 267 207 332 264 l 205 153 q 135 72 156 112 q 114 -22 114 31 q 170 -158 114 -106 q 315 -210 225 -210 q 477 -178 405 -210 l 521 -160 l 546 -214 q 422 -257 472 -245 q 317 -268 372 -268 q 121 -201 192 -268 q 50 -18 50 -134 q 63 64 50 28 q 103 135 77 101 q 220 243 130 168 q 320 373 300 309 q 330 472 330 406 l 330 482 l 386 482 z "},"À":{"ha":833,"x_min":0,"x_max":833,"o":"m 229 1293 l 325 1293 q 392 1197 342 1261 q 488 1082 441 1133 l 488 1071 l 441 1071 q 315 1186 378 1123 q 229 1282 252 1249 l 229 1293 m 833 0 l 755 0 l 618 350 l 215 350 l 77 0 l 0 0 l 399 996 l 443 996 l 833 0 m 595 412 l 460 770 q 419 886 444 809 q 379 768 401 824 l 240 412 l 595 412 z "},"Á":{"ha":833,"x_min":0,"x_max":833,"o":"m 602 1293 l 602 1282 q 518 1188 577 1246 q 389 1071 459 1129 l 342 1071 l 342 1082 q 439 1197 391 1135 q 506 1293 488 1260 l 602 1293 m 833 0 l 755 0 l 618 350 l 215 350 l 77 0 l 0 0 l 399 996 l 443 996 l 833 0 m 595 412 l 460 770 q 419 886 444 809 q 379 768 401 824 l 240 412 l 595 412 z "},"Â":{"ha":833,"x_min":0,"x_max":833,"o":"m 617 1071 l 570 1071 q 420 1211 486 1140 q 270 1071 348 1135 l 222 1071 l 222 1082 q 312 1187 264 1127 q 387 1293 359 1248 l 453 1293 q 617 1082 498 1213 l 617 1071 m 833 0 l 755 0 l 618 350 l 215 350 l 77 0 l 0 0 l 399 996 l 443 996 l 833 0 m 595 412 l 460 770 q 419 886 444 809 q 379 768 401 824 l 240 412 l 595 412 z "},"Ã":{"ha":833,"x_min":0,"x_max":833,"o":"m 532 1072 q 479 1085 506 1072 q 424 1123 453 1099 q 383 1156 394 1148 q 325 1178 353 1178 q 276 1154 296 1178 q 244 1072 256 1130 l 195 1072 q 237 1191 201 1147 q 330 1234 273 1234 q 372 1225 351 1234 q 407 1206 393 1216 q 443 1178 421 1196 q 476 1152 465 1160 q 532 1128 508 1128 q 616 1234 595 1128 l 668 1234 q 622 1114 657 1156 q 532 1072 586 1072 m 833 0 l 755 0 l 618 350 l 215 350 l 77 0 l 0 0 l 399 996 l 443 996 l 833 0 m 595 412 l 460 770 q 419 886 444 809 q 379 768 401 824 l 240 412 l 595 412 z "},"Ä":{"ha":833,"x_min":0,"x_max":833,"o":"m 292 1230 q 335 1171 335 1230 q 292 1113 335 1113 q 249 1171 249 1113 q 259 1216 249 1202 q 292 1230 269 1230 m 550 1230 q 593 1171 593 1230 q 550 1113 593 1113 q 507 1171 507 1113 q 517 1216 507 1202 q 550 1230 528 1230 m 833 0 l 755 0 l 618 350 l 215 350 l 77 0 l 0 0 l 399 996 l 443 996 l 833 0 m 595 412 l 460 770 q 419 886 444 809 q 379 768 401 824 l 240 412 l 595 412 z "},"Å":{"ha":833,"x_min":0,"x_max":833,"o":"m 381 951 q 302 1000 331 962 q 273 1096 273 1037 q 313 1195 273 1156 q 419 1235 354 1235 q 526 1195 485 1235 q 567 1096 567 1155 q 538 1000 567 1038 q 460 951 509 963 l 833 0 l 755 0 l 618 350 l 215 350 l 77 0 l 0 0 l 381 951 m 419 1186 q 398 1186 419 1186 q 352 1160 378 1186 q 327 1091 327 1135 q 352 1022 327 1047 q 420 996 377 996 q 488 1022 463 996 q 513 1091 513 1047 q 487 1160 513 1135 q 419 1186 460 1186 m 595 412 l 460 770 q 419 886 444 809 q 379 768 401 824 l 240 412 l 595 412 z "},"Æ":{"ha":1121,"x_min":-1,"x_max":1036,"o":"m 1036 928 l 619 928 l 619 553 l 1010 553 l 1010 489 l 619 489 l 619 64 l 1036 64 l 1036 0 l 550 0 l 550 350 l 228 350 l 74 0 l -1 0 l 441 991 l 1036 991 l 1036 928 m 550 412 l 550 928 l 482 928 l 256 412 l 550 412 z "},"Ç":{"ha":863,"x_min":87,"x_max":819,"o":"m 564 943 q 270 824 377 943 q 163 494 163 705 q 264 167 163 284 q 553 50 366 50 q 782 82 676 50 l 782 21 q 541 -14 685 -13 l 504 -79 q 618 -197 618 -104 q 572 -299 618 -264 q 444 -334 527 -334 q 380 -326 399 -334 l 380 -267 q 448 -273 400 -273 q 524 -254 496 -273 q 551 -200 551 -235 q 420 -118 551 -136 l 478 -11 q 191 141 294 8 q 87 498 87 275 q 145 765 87 650 q 310 943 202 880 q 560 1006 417 1006 q 819 951 703 1006 l 791 889 q 564 943 682 943 z "},"È":{"ha":766,"x_min":140,"x_max":682,"o":"m 213 1293 l 309 1293 q 376 1197 327 1261 q 473 1082 426 1133 l 473 1071 l 426 1071 q 299 1186 362 1123 q 213 1282 236 1249 l 213 1293 m 682 928 l 210 928 l 210 553 l 656 553 l 656 489 l 210 489 l 210 64 l 682 64 l 682 0 l 140 0 l 140 991 l 682 991 l 682 928 z "},"É":{"ha":766,"x_min":140,"x_max":682,"o":"m 574 1293 l 574 1282 q 490 1188 549 1246 q 361 1071 431 1129 l 314 1071 l 314 1082 q 411 1197 363 1135 q 478 1293 460 1260 l 574 1293 m 682 928 l 210 928 l 210 553 l 656 553 l 656 489 l 210 489 l 210 64 l 682 64 l 682 0 l 140 0 l 140 991 l 682 991 l 682 928 z "},"Ê":{"ha":766,"x_min":140,"x_max":682,"o":"m 608 1071 l 561 1071 q 411 1211 477 1140 q 261 1071 339 1135 l 214 1071 l 214 1082 q 303 1187 256 1127 q 378 1293 350 1248 l 444 1293 q 608 1082 490 1213 l 608 1071 m 682 928 l 210 928 l 210 553 l 656 553 l 656 489 l 210 489 l 210 64 l 682 64 l 682 0 l 140 0 l 140 991 l 682 991 l 682 928 z "},"Ë":{"ha":766,"x_min":140,"x_max":682,"o":"m 283 1230 q 326 1171 326 1230 q 283 1113 326 1113 q 240 1171 240 1113 q 250 1216 240 1202 q 283 1230 260 1230 m 541 1230 q 585 1171 585 1230 q 542 1113 585 1113 q 498 1171 498 1113 q 509 1216 498 1202 q 541 1230 519 1230 m 682 928 l 210 928 l 210 553 l 656 553 l 656 489 l 210 489 l 210 64 l 682 64 l 682 0 l 140 0 l 140 991 l 682 991 l 682 928 z "},"Ì":{"ha":350,"x_min":-43,"x_max":217,"o":"m -43 1293 l 54 1293 q 121 1197 71 1261 q 217 1082 170 1133 l 217 1071 l 170 1071 q 43 1186 106 1123 q -43 1282 -20 1249 l -43 1293 m 210 0 l 140 0 l 140 991 l 210 991 l 210 0 z "},"Í":{"ha":350,"x_min":130,"x_max":389,"o":"m 389 1293 l 389 1282 q 306 1188 365 1246 q 177 1071 247 1129 l 130 1071 l 130 1082 q 227 1197 178 1135 q 294 1293 275 1260 l 389 1293 m 210 0 l 140 0 l 140 991 l 210 991 l 210 0 z "},"Î":{"ha":350,"x_min":-22,"x_max":373,"o":"m 373 1071 l 326 1071 q 176 1211 241 1140 q 26 1071 104 1135 l -22 1071 l -22 1082 q 67 1187 20 1127 q 142 1293 115 1248 l 209 1293 q 373 1082 254 1213 l 373 1071 m 210 0 l 140 0 l 140 991 l 210 991 l 210 0 z "},"Ï":{"ha":350,"x_min":3,"x_max":348,"o":"m 46 1230 q 90 1171 90 1230 q 46 1113 90 1113 q 3 1171 3 1113 q 14 1216 3 1202 q 46 1230 24 1230 m 304 1230 q 348 1171 348 1230 q 305 1113 348 1113 q 262 1171 262 1113 q 272 1216 262 1202 q 304 1230 282 1230 m 210 0 l 140 0 l 140 991 l 210 991 l 210 0 z "},"Ð":{"ha":994,"x_min":32,"x_max":893,"o":"m 140 991 l 408 991 q 769 867 646 991 q 893 499 893 743 q 763 128 893 256 q 378 0 632 0 l 140 0 l 140 460 l 32 460 l 32 524 l 140 524 l 140 991 m 210 930 l 210 524 l 485 524 l 485 460 l 210 460 l 210 61 l 374 61 q 818 503 818 61 q 710 823 818 715 q 392 930 602 930 l 210 930 z "},"Ñ":{"ha":1002,"x_min":140,"x_max":861,"o":"m 608 1072 q 556 1085 583 1072 q 500 1123 530 1099 q 460 1156 471 1148 q 401 1178 429 1178 q 353 1154 373 1178 q 321 1072 333 1130 l 271 1072 q 314 1191 278 1147 q 407 1234 350 1234 q 449 1225 427 1234 q 484 1206 470 1216 q 520 1178 498 1196 q 553 1152 542 1160 q 608 1128 585 1128 q 693 1234 671 1128 l 745 1234 q 698 1114 734 1156 q 608 1072 663 1072 m 861 0 l 791 0 l 204 880 l 199 880 q 207 643 207 723 l 207 0 l 140 0 l 140 991 l 210 991 l 796 113 l 800 113 q 794 345 794 235 l 794 991 l 861 991 l 861 0 z "},"Ò":{"ha":1061,"x_min":87,"x_max":974,"o":"m 340 1293 l 437 1293 q 504 1197 454 1261 q 600 1082 553 1133 l 600 1071 l 553 1071 q 427 1186 490 1123 q 340 1282 363 1249 l 340 1293 m 87 498 q 87 616 87 498 q 207 871 87 735 q 532 1007 326 1007 q 856 871 739 1007 q 974 497 974 734 q 856 123 974 260 q 530 -14 737 -14 q 205 123 323 -14 q 87 498 87 260 m 899 496 q 899 604 899 496 q 804 826 899 711 q 532 940 709 940 q 259 825 355 940 q 163 496 163 709 q 258 168 163 283 q 531 52 353 52 q 804 166 709 52 q 899 496 899 281 z "},"Ó":{"ha":1061,"x_min":87,"x_max":974,"o":"m 725 1293 l 725 1282 q 642 1188 701 1246 q 513 1071 583 1129 l 465 1071 l 465 1082 q 563 1197 514 1135 q 629 1293 611 1260 l 725 1293 m 87 498 q 87 616 87 498 q 207 871 87 735 q 532 1007 326 1007 q 856 871 739 1007 q 974 497 974 734 q 856 123 974 260 q 530 -14 737 -14 q 205 123 323 -14 q 87 498 87 260 m 899 496 q 899 604 899 496 q 804 826 899 711 q 532 940 709 940 q 259 825 355 940 q 163 496 163 709 q 258 168 163 283 q 531 52 353 52 q 804 166 709 52 q 899 496 899 281 z "},"Ô":{"ha":1061,"x_min":87,"x_max":974,"o":"m 728 1071 l 681 1071 q 531 1211 597 1140 q 381 1071 459 1135 l 334 1071 l 334 1082 q 423 1187 376 1127 q 498 1293 470 1248 l 564 1293 q 728 1082 610 1213 l 728 1071 m 87 498 q 87 616 87 498 q 207 871 87 735 q 532 1007 326 1007 q 856 871 739 1007 q 974 497 974 734 q 856 123 974 260 q 530 -14 737 -14 q 205 123 323 -14 q 87 498 87 260 m 899 496 q 899 604 899 496 q 804 826 899 711 q 532 940 709 940 q 259 825 355 940 q 163 496 163 709 q 258 168 163 283 q 531 52 353 52 q 804 166 709 52 q 899 496 899 281 z "},"Õ":{"ha":1061,"x_min":87,"x_max":974,"o":"m 637 1072 q 585 1085 612 1072 q 529 1123 559 1099 q 489 1156 500 1148 q 430 1178 458 1178 q 382 1154 402 1178 q 350 1072 362 1130 l 300 1072 q 343 1191 307 1147 q 436 1234 379 1234 q 478 1225 456 1234 q 513 1206 499 1216 q 549 1178 527 1196 q 582 1152 571 1160 q 637 1128 614 1128 q 722 1234 701 1128 l 774 1234 q 727 1114 763 1156 q 637 1072 692 1072 m 87 498 q 87 616 87 498 q 207 871 87 735 q 532 1007 326 1007 q 856 871 739 1007 q 974 497 974 734 q 856 123 974 260 q 530 -14 737 -14 q 205 123 323 -14 q 87 498 87 260 m 899 496 q 899 604 899 496 q 804 826 899 711 q 532 940 709 940 q 259 825 355 940 q 163 496 163 709 q 258 168 163 283 q 531 52 353 52 q 804 166 709 52 q 899 496 899 281 z "},"Ö":{"ha":1061,"x_min":87,"x_max":974,"o":"m 401 1230 q 445 1171 445 1230 q 402 1113 445 1113 q 359 1171 359 1113 q 369 1216 359 1202 q 401 1230 379 1230 m 660 1230 q 703 1171 703 1230 q 660 1113 703 1113 q 617 1171 617 1113 q 627 1216 617 1202 q 660 1230 637 1230 m 87 498 q 87 616 87 498 q 207 871 87 735 q 532 1007 326 1007 q 856 871 739 1007 q 974 497 974 734 q 856 123 974 260 q 530 -14 737 -14 q 205 123 323 -14 q 87 498 87 260 m 899 496 q 899 604 899 496 q 804 826 899 711 q 532 940 709 940 q 259 825 355 940 q 163 496 163 709 q 258 168 163 283 q 531 52 353 52 q 804 166 709 52 q 899 496 899 281 z "},"×":{"ha":793,"x_min":81,"x_max":713,"o":"m 713 766 l 436 490 l 711 214 l 671 175 l 396 452 l 121 175 l 82 214 l 357 490 l 81 766 l 119 806 l 396 529 l 673 806 l 713 766 z "},"Ø":{"ha":1061,"x_min":87,"x_max":974,"o":"m 844 884 q 974 502 974 743 q 856 123 974 260 q 530 -14 737 -14 q 262 68 370 -14 l 204 -14 l 154 26 l 215 113 q 87 492 87 248 q 207 871 87 735 q 532 1007 326 1007 q 798 925 689 1007 l 871 1028 l 920 987 l 844 884 m 532 940 q 259 825 355 940 q 163 497 163 709 q 257 170 163 285 l 758 871 q 532 940 668 940 m 530 52 q 804 166 709 52 q 899 496 899 281 q 804 827 899 711 l 301 123 q 530 52 391 52 z "},"Ù":{"ha":999,"x_min":129,"x_max":869,"o":"m 305 1293 l 401 1293 q 469 1197 419 1261 q 565 1082 518 1133 l 565 1071 l 518 1071 q 391 1186 454 1123 q 305 1282 328 1249 l 305 1293 m 869 991 l 869 350 q 770 83 869 179 q 497 -14 671 -14 q 225 83 322 -14 q 129 353 129 180 l 129 991 l 199 991 l 199 350 q 278 127 199 207 q 501 47 358 47 q 722 125 644 47 q 800 343 800 203 l 800 991 l 869 991 z "},"Ú":{"ha":999,"x_min":129,"x_max":869,"o":"m 689 1293 l 689 1282 q 606 1188 665 1246 q 477 1071 547 1129 l 429 1071 l 429 1082 q 527 1197 478 1135 q 593 1293 575 1260 l 689 1293 m 869 991 l 869 350 q 770 83 869 179 q 497 -14 671 -14 q 225 83 322 -14 q 129 353 129 180 l 129 991 l 199 991 l 199 350 q 278 127 199 207 q 501 47 358 47 q 722 125 644 47 q 800 343 800 203 l 800 991 l 869 991 z "},"Û":{"ha":999,"x_min":129,"x_max":869,"o":"m 696 1071 l 648 1071 q 498 1211 564 1140 q 349 1071 427 1135 l 301 1071 l 301 1082 q 390 1187 343 1127 q 465 1293 437 1248 l 532 1293 q 696 1082 577 1213 l 696 1071 m 869 991 l 869 350 q 770 83 869 179 q 497 -14 671 -14 q 225 83 322 -14 q 129 353 129 180 l 129 991 l 199 991 l 199 350 q 278 127 199 207 q 501 47 358 47 q 722 125 644 47 q 800 343 800 203 l 800 991 l 869 991 z "},"Ü":{"ha":999,"x_min":129,"x_max":869,"o":"m 369 1230 q 412 1171 412 1230 q 369 1113 412 1113 q 326 1171 326 1113 q 336 1216 326 1202 q 369 1230 347 1230 m 627 1230 q 671 1171 671 1230 q 628 1113 671 1113 q 585 1171 585 1113 q 595 1216 585 1202 q 627 1230 605 1230 m 869 991 l 869 350 q 770 83 869 179 q 497 -14 671 -14 q 225 83 322 -14 q 129 353 129 180 l 129 991 l 199 991 l 199 350 q 278 127 199 207 q 501 47 358 47 q 722 125 644 47 q 800 343 800 203 l 800 991 l 869 991 z "},"Ý":{"ha":733,"x_min":0,"x_max":733,"o":"m 554 1293 l 554 1282 q 471 1188 530 1246 q 342 1071 412 1129 l 294 1071 l 294 1082 q 392 1197 343 1135 q 458 1293 440 1260 l 554 1293 m 403 0 l 332 0 l 332 378 l 0 991 l 79 991 l 368 449 l 659 991 l 733 991 l 403 383 l 403 0 z "},"Þ":{"ha":812,"x_min":140,"x_max":737,"o":"m 210 812 l 383 812 q 737 528 737 812 q 640 307 737 384 q 363 231 543 231 l 210 231 l 210 0 l 140 0 l 140 991 l 210 991 l 210 812 m 210 750 l 210 290 l 346 290 q 588 346 513 290 q 663 520 663 401 q 592 695 663 640 q 374 750 522 750 l 210 750 z "},"ß":{"ha":810,"x_min":123,"x_max":741,"o":"m 123 0 l 123 818 q 194 999 123 935 q 392 1063 264 1063 q 586 1014 519 1063 q 652 870 652 964 q 557 701 652 777 q 482 632 501 656 q 463 581 463 608 q 472 537 463 553 q 568 450 490 505 q 678 361 646 395 q 725 291 710 328 q 741 208 741 254 q 681 44 741 102 q 514 -14 622 -14 q 310 32 382 -14 l 310 104 q 411 62 354 79 q 514 46 467 46 q 632 83 591 46 q 673 192 673 121 q 646 291 673 250 q 538 387 619 332 q 426 483 458 442 q 395 581 395 524 q 416 655 395 621 q 489 728 438 689 q 562 800 540 767 q 583 872 583 833 q 536 969 583 935 q 394 1003 488 1003 q 245 956 300 1003 q 191 823 191 909 l 191 0 l 123 0 z "},"à":{"ha":736,"x_min":66,"x_max":621,"o":"m 173 1064 l 269 1064 q 336 967 287 1031 q 433 852 386 903 l 433 842 l 386 842 q 259 957 322 894 q 173 1053 196 1019 l 173 1064 m 139 693 q 381 750 260 750 q 561 687 501 750 q 621 490 621 623 l 621 0 l 571 0 l 554 117 l 549 117 q 435 16 494 46 q 296 -14 376 -14 q 127 42 188 -14 q 66 196 66 98 q 156 363 66 304 q 416 427 246 423 l 557 431 l 557 479 q 513 639 557 587 q 372 692 470 692 q 164 635 274 692 l 139 693 m 138 193 q 180 86 138 124 q 300 47 222 47 q 486 115 418 47 q 554 302 554 183 l 554 375 l 425 370 q 204 321 271 362 q 138 193 138 280 z "},"á":{"ha":736,"x_min":66,"x_max":621,"o":"m 546 1064 l 546 1053 q 463 959 522 1017 q 334 842 404 900 l 286 842 l 286 852 q 384 968 335 905 q 450 1064 432 1031 l 546 1064 m 139 693 q 381 750 260 750 q 561 687 501 750 q 621 490 621 623 l 621 0 l 571 0 l 554 117 l 549 117 q 435 16 494 46 q 296 -14 376 -14 q 127 42 188 -14 q 66 196 66 98 q 156 363 66 304 q 416 427 246 423 l 557 431 l 557 479 q 513 639 557 587 q 372 692 470 692 q 164 635 274 692 l 139 693 m 138 193 q 180 86 138 124 q 300 47 222 47 q 486 115 418 47 q 554 302 554 183 l 554 375 l 425 370 q 204 321 271 362 q 138 193 138 280 z "},"â":{"ha":736,"x_min":66,"x_max":621,"o":"m 565 842 l 517 842 q 368 982 433 911 q 218 842 296 906 l 170 842 l 170 852 q 259 958 212 898 q 334 1064 307 1019 l 401 1064 q 565 852 446 983 l 565 842 m 139 693 q 381 750 260 750 q 561 687 501 750 q 621 490 621 623 l 621 0 l 571 0 l 554 117 l 549 117 q 435 16 494 46 q 296 -14 376 -14 q 127 42 188 -14 q 66 196 66 98 q 156 363 66 304 q 416 427 246 423 l 557 431 l 557 479 q 513 639 557 587 q 372 692 470 692 q 164 635 274 692 l 139 693 m 138 193 q 180 86 138 124 q 300 47 222 47 q 486 115 418 47 q 554 302 554 183 l 554 375 l 425 370 q 204 321 271 362 q 138 193 138 280 z "},"ã":{"ha":736,"x_min":66,"x_max":621,"o":"m 473 843 q 420 856 447 843 q 365 894 394 869 q 324 926 335 919 q 266 949 294 949 q 217 925 237 949 q 185 843 197 901 l 136 843 q 178 961 142 918 q 271 1004 214 1004 q 313 996 292 1004 q 348 977 334 987 q 384 949 362 967 q 418 922 406 931 q 473 899 449 899 q 557 1004 536 899 l 609 1004 q 563 885 598 926 q 473 843 527 843 m 139 693 q 381 750 260 750 q 561 687 501 750 q 621 490 621 623 l 621 0 l 571 0 l 554 117 l 549 117 q 435 16 494 46 q 296 -14 376 -14 q 127 42 188 -14 q 66 196 66 98 q 156 363 66 304 q 416 427 246 423 l 557 431 l 557 479 q 513 639 557 587 q 372 692 470 692 q 164 635 274 692 l 139 693 m 138 193 q 180 86 138 124 q 300 47 222 47 q 486 115 418 47 q 554 302 554 183 l 554 375 l 425 370 q 204 321 271 362 q 138 193 138 280 z "},"ä":{"ha":736,"x_min":66,"x_max":621,"o":"m 234 1000 q 277 942 277 1000 q 234 884 277 884 q 191 942 191 884 q 201 986 191 972 q 234 1000 212 1000 m 492 1000 q 536 942 536 1000 q 493 884 536 884 q 450 942 450 884 q 460 986 450 972 q 492 1000 470 1000 m 139 693 q 381 750 260 750 q 561 687 501 750 q 621 490 621 623 l 621 0 l 571 0 l 554 117 l 549 117 q 435 16 494 46 q 296 -14 376 -14 q 127 42 188 -14 q 66 196 66 98 q 156 363 66 304 q 416 427 246 423 l 557 431 l 557 479 q 513 639 557 587 q 372 692 470 692 q 164 635 274 692 l 139 693 m 138 193 q 180 86 138 124 q 300 47 222 47 q 486 115 418 47 q 554 302 554 183 l 554 375 l 425 370 q 204 321 271 362 q 138 193 138 280 z "},"å":{"ha":736,"x_min":66,"x_max":621,"o":"m 220 987 q 220 1019 220 987 q 261 1091 220 1051 q 367 1131 302 1131 q 474 1090 433 1131 q 515 986 515 1050 q 474 883 515 922 q 368 843 433 843 q 261 883 302 843 q 220 987 220 922 m 460 986 q 460 1008 460 986 q 434 1056 460 1030 q 367 1082 408 1082 q 300 1056 326 1082 q 275 986 275 1030 q 300 917 275 943 q 368 892 325 892 q 435 917 410 892 q 460 986 460 943 m 139 693 q 381 750 260 750 q 561 687 501 750 q 621 490 621 623 l 621 0 l 571 0 l 554 117 l 549 117 q 435 16 494 46 q 296 -14 376 -14 q 127 42 188 -14 q 66 196 66 98 q 156 363 66 304 q 416 427 246 423 l 557 431 l 557 479 q 513 639 557 587 q 372 692 470 692 q 164 635 274 692 l 139 693 m 138 193 q 180 86 138 124 q 300 47 222 47 q 486 115 418 47 q 554 302 554 183 l 554 375 l 425 370 q 204 321 271 362 q 138 193 138 280 z "},"æ":{"ha":1174,"x_min":66,"x_max":1093,"o":"m 370 750 q 590 607 547 750 q 825 751 665 751 q 1021 660 949 751 q 1093 414 1093 569 l 1093 359 l 608 359 q 844 47 608 47 q 949 56 905 47 q 1064 94 994 65 l 1064 33 q 955 -4 1004 6 q 843 -14 905 -14 q 574 160 643 -14 q 459 28 527 70 q 288 -14 392 -14 q 125 42 184 -14 q 66 200 66 98 q 152 361 66 302 q 407 427 238 421 l 543 431 l 543 479 q 501 639 543 587 q 363 692 458 692 q 160 635 267 692 l 135 693 q 370 750 252 750 m 1022 419 q 969 619 1022 547 q 825 692 917 692 q 612 419 633 692 l 1022 419 m 138 193 q 179 86 138 124 q 294 47 220 47 q 475 115 409 47 q 541 302 541 183 l 541 375 l 414 370 q 201 321 265 362 q 138 193 138 280 z "},"ç":{"ha":660,"x_min":81,"x_max":611,"o":"m 427 690 q 221 607 292 690 q 151 370 151 524 q 221 132 151 216 q 416 47 291 47 q 603 83 515 47 l 603 21 q 418 -14 533 -14 l 414 -14 l 376 -79 q 490 -197 490 -104 q 445 -299 490 -264 q 317 -334 399 -334 q 253 -326 271 -334 l 253 -267 q 320 -273 273 -273 q 396 -254 368 -273 q 424 -200 424 -235 q 293 -118 424 -136 l 351 -9 q 152 109 222 12 q 81 364 81 206 q 173 649 81 547 q 428 751 266 751 q 611 718 524 751 l 593 659 q 427 690 496 690 z "},"è":{"ha":762,"x_min":81,"x_max":682,"o":"m 205 1064 l 301 1064 q 368 967 319 1031 q 465 852 418 903 l 465 842 l 418 842 q 291 957 354 894 q 205 1053 228 1019 l 205 1064 m 421 -14 q 171 85 260 -14 q 81 362 81 184 q 168 646 81 540 q 401 751 255 751 q 607 661 532 751 q 682 414 682 570 l 682 359 l 151 359 q 222 127 153 208 q 421 47 292 47 q 534 57 486 47 q 653 94 582 66 l 653 33 q 539 -3 592 7 q 421 -14 487 -14 m 611 419 q 555 620 611 547 q 397 692 500 692 q 230 621 294 692 q 155 419 166 551 l 611 419 z "},"é":{"ha":762,"x_min":81,"x_max":682,"o":"m 566 1064 l 566 1053 q 483 959 542 1017 q 354 842 424 900 l 307 842 l 307 852 q 404 968 355 905 q 471 1064 452 1031 l 566 1064 m 421 -14 q 171 85 260 -14 q 81 362 81 184 q 168 646 81 540 q 401 751 255 751 q 607 661 532 751 q 682 414 682 570 l 682 359 l 151 359 q 222 127 153 208 q 421 47 292 47 q 534 57 486 47 q 653 94 582 66 l 653 33 q 539 -3 592 7 q 421 -14 487 -14 m 611 419 q 555 620 611 547 q 397 692 500 692 q 230 621 294 692 q 155 419 166 551 l 611 419 z "},"ê":{"ha":762,"x_min":81,"x_max":682,"o":"m 591 842 l 544 842 q 394 982 460 911 q 244 842 322 906 l 197 842 l 197 852 q 286 958 239 898 q 361 1064 333 1019 l 427 1064 q 591 852 473 983 l 591 842 m 421 -14 q 171 85 260 -14 q 81 362 81 184 q 168 646 81 540 q 401 751 255 751 q 607 661 532 751 q 682 414 682 570 l 682 359 l 151 359 q 222 127 153 208 q 421 47 292 47 q 534 57 486 47 q 653 94 582 66 l 653 33 q 539 -3 592 7 q 421 -14 487 -14 m 611 419 q 555 620 611 547 q 397 692 500 692 q 230 621 294 692 q 155 419 166 551 l 611 419 z "},"ë":{"ha":762,"x_min":81,"x_max":682,"o":"m 267 1000 q 311 942 311 1000 q 268 884 311 884 q 224 942 224 884 q 235 986 224 972 q 267 1000 245 1000 m 526 1000 q 569 942 569 1000 q 526 884 569 884 q 483 942 483 884 q 493 986 483 972 q 526 1000 503 1000 m 421 -14 q 171 85 260 -14 q 81 362 81 184 q 168 646 81 540 q 401 751 255 751 q 607 661 532 751 q 682 414 682 570 l 682 359 l 151 359 q 222 127 153 208 q 421 47 292 47 q 534 57 486 47 q 653 94 582 66 l 653 33 q 539 -3 592 7 q 421 -14 487 -14 m 611 419 q 555 620 611 547 q 397 692 500 692 q 230 621 294 692 q 155 419 166 551 l 611 419 z "},"ì":{"ha":314,"x_min":-23,"x_max":237,"o":"m -23 1064 l 73 1064 q 140 967 91 1031 q 237 852 190 903 l 237 842 l 190 842 q 63 957 126 894 q -23 1053 0 1019 l -23 1064 m 191 0 l 123 0 l 123 737 l 191 737 l 191 0 z "},"í":{"ha":314,"x_min":73,"x_max":332,"o":"m 332 1064 l 332 1053 q 249 959 308 1017 q 120 842 190 900 l 73 842 l 73 852 q 170 968 121 905 q 237 1064 218 1031 l 332 1064 m 191 0 l 123 0 l 123 737 l 191 737 l 191 0 z "},"î":{"ha":314,"x_min":-39,"x_max":355,"o":"m 355 842 l 308 842 q 158 982 224 911 q 8 842 86 906 l -39 842 l -39 852 q 50 958 3 898 q 125 1064 97 1019 l 191 1064 q 355 852 237 983 l 355 842 m 191 0 l 123 0 l 123 737 l 191 737 l 191 0 z "},"ï":{"ha":314,"x_min":-14,"x_max":330,"o":"m 28 1000 q 72 942 72 1000 q 29 884 72 884 q -14 942 -14 884 q -4 986 -14 972 q 28 1000 6 1000 m 287 1000 q 330 942 330 1000 q 287 884 330 884 q 244 942 244 884 q 254 986 244 972 q 287 1000 264 1000 m 191 0 l 123 0 l 123 737 l 191 737 l 191 0 z "},"ð":{"ha":796,"x_min":79,"x_max":715,"o":"m 715 379 q 631 89 715 192 q 398 -14 547 -14 q 164 75 249 -14 q 79 318 79 163 q 165 562 79 473 q 397 650 250 650 q 523 628 469 650 q 625 562 577 606 l 628 564 q 446 875 584 747 l 262 768 l 229 821 l 395 920 q 260 1000 337 961 l 290 1055 q 458 957 392 1008 l 611 1050 l 644 993 l 507 911 q 663 673 610 810 q 715 379 715 536 m 644 378 q 578 533 644 477 q 392 589 513 589 q 150 314 150 589 q 214 117 150 187 q 398 47 279 47 q 581 131 518 47 q 644 378 644 215 z "},"ñ":{"ha":819,"x_min":123,"x_max":704,"o":"m 528 843 q 476 856 503 843 q 420 894 450 869 q 380 926 391 919 q 321 949 349 949 q 273 925 293 949 q 241 843 253 901 l 191 843 q 234 961 198 918 q 327 1004 270 1004 q 369 996 347 1004 q 404 977 390 987 q 440 949 418 967 q 473 922 462 931 q 528 899 505 899 q 613 1004 591 899 l 665 1004 q 618 885 654 926 q 528 843 583 843 m 453 751 q 704 482 704 751 l 704 0 l 637 0 l 637 478 q 591 640 637 589 q 446 690 545 690 q 252 623 313 690 q 191 407 191 556 l 191 0 l 123 0 l 123 737 l 180 737 l 193 636 l 197 636 q 453 751 270 751 z "},"ò":{"ha":814,"x_min":81,"x_max":733,"o":"m 227 1064 l 323 1064 q 391 967 341 1031 q 487 852 440 903 l 487 842 l 440 842 q 313 957 376 894 q 227 1053 250 1019 l 227 1064 m 81 370 q 168 650 81 549 q 408 751 255 751 q 647 649 560 751 q 733 368 733 547 q 646 88 733 189 q 404 -14 559 -14 q 233 33 307 -14 q 120 167 159 80 q 81 370 81 254 m 595 606 q 561 648 595 606 q 406 690 528 690 q 217 607 283 690 q 151 370 151 523 q 218 132 151 217 q 407 47 285 47 q 596 132 529 47 q 663 370 663 217 q 595 606 663 522 z "},"ó":{"ha":814,"x_min":81,"x_max":733,"o":"m 598 1064 l 598 1053 q 515 959 574 1017 q 386 842 456 900 l 338 842 l 338 852 q 436 968 387 905 q 503 1064 484 1031 l 598 1064 m 81 370 q 168 650 81 549 q 408 751 255 751 q 647 649 560 751 q 733 368 733 547 q 646 88 733 189 q 404 -14 559 -14 q 233 33 307 -14 q 120 167 159 80 q 81 370 81 254 m 595 606 q 561 648 595 606 q 406 690 528 690 q 217 607 283 690 q 151 370 151 523 q 218 132 151 217 q 407 47 285 47 q 596 132 529 47 q 663 370 663 217 q 595 606 663 522 z "},"ô":{"ha":814,"x_min":81,"x_max":733,"o":"m 604 842 l 557 842 q 407 982 473 911 q 257 842 335 906 l 210 842 l 210 852 q 299 958 252 898 q 374 1064 346 1019 l 440 1064 q 604 852 486 983 l 604 842 m 81 370 q 168 650 81 549 q 408 751 255 751 q 647 649 560 751 q 733 368 733 547 q 646 88 733 189 q 404 -14 559 -14 q 233 33 307 -14 q 120 167 159 80 q 81 370 81 254 m 595 606 q 561 648 595 606 q 406 690 528 690 q 217 607 283 690 q 151 370 151 523 q 218 132 151 217 q 407 47 285 47 q 596 132 529 47 q 663 370 663 217 q 595 606 663 522 z "},"õ":{"ha":814,"x_min":81,"x_max":733,"o":"m 516 843 q 464 856 490 843 q 408 894 437 869 q 368 926 378 919 q 309 949 337 949 q 261 925 281 949 q 229 843 241 901 l 179 843 q 222 961 186 918 q 315 1004 258 1004 q 356 996 335 1004 q 392 977 378 987 q 428 949 406 967 q 461 922 450 931 q 516 899 492 899 q 601 1004 579 899 l 652 1004 q 606 885 642 926 q 516 843 570 843 m 81 370 q 168 650 81 549 q 408 751 255 751 q 647 649 560 751 q 733 368 733 547 q 646 88 733 189 q 404 -14 559 -14 q 233 33 307 -14 q 120 167 159 80 q 81 370 81 254 m 595 606 q 561 648 595 606 q 406 690 528 690 q 217 607 283 690 q 151 370 151 523 q 218 132 151 217 q 407 47 285 47 q 596 132 529 47 q 663 370 663 217 q 595 606 663 522 z "},"ö":{"ha":814,"x_min":81,"x_max":733,"o":"m 277 1000 q 321 942 321 1000 q 278 884 321 884 q 235 942 235 884 q 245 986 235 972 q 277 1000 255 1000 m 536 1000 q 579 942 579 1000 q 536 884 579 884 q 493 942 493 884 q 503 986 493 972 q 536 1000 513 1000 m 81 370 q 168 650 81 549 q 408 751 255 751 q 647 649 560 751 q 733 368 733 547 q 646 88 733 189 q 404 -14 559 -14 q 233 33 307 -14 q 120 167 159 80 q 81 370 81 254 m 595 606 q 561 648 595 606 q 406 690 528 690 q 217 607 283 690 q 151 370 151 523 q 218 132 151 217 q 407 47 285 47 q 596 132 529 47 q 663 370 663 217 q 595 606 663 522 z "},"÷":{"ha":793,"x_min":75,"x_max":718,"o":"m 396 796 q 452 729 452 796 q 436 679 452 695 q 396 662 421 662 q 357 679 372 662 q 342 729 342 696 q 396 796 342 796 m 718 463 l 75 463 l 75 518 l 718 518 l 718 463 m 396 318 q 452 251 452 318 q 396 184 452 184 q 357 201 372 184 q 342 252 342 217 q 396 318 342 318 z "},"ø":{"ha":814,"x_min":81,"x_max":733,"o":"m 657 635 q 733 362 733 536 q 646 88 733 189 q 404 -14 559 -14 q 207 53 288 -14 l 149 -24 l 100 16 l 163 97 q 81 375 81 200 q 168 650 81 549 q 408 751 255 751 q 612 681 530 751 l 677 765 l 728 728 l 657 635 m 406 690 q 217 607 283 690 q 151 378 151 523 q 204 151 151 233 l 572 629 q 406 690 506 690 m 407 47 q 596 132 529 47 q 663 370 663 217 q 614 579 663 499 l 245 103 q 407 47 309 47 z "},"ù":{"ha":819,"x_min":115,"x_max":696,"o":"m 206 1064 l 302 1064 q 370 967 320 1031 q 466 852 419 903 l 466 842 l 419 842 q 292 957 355 894 q 206 1053 229 1019 l 206 1064 m 696 0 l 639 0 l 627 102 l 623 102 q 367 -14 550 -14 q 115 256 115 -14 l 115 737 l 182 737 l 182 260 q 228 98 182 149 q 374 47 275 47 q 568 114 507 47 q 629 330 629 181 l 629 737 l 696 737 l 696 0 z "},"ú":{"ha":819,"x_min":115,"x_max":696,"o":"m 595 1064 l 595 1053 q 512 959 571 1017 q 383 842 453 900 l 336 842 l 336 852 q 433 968 385 905 q 500 1064 481 1031 l 595 1064 m 696 0 l 639 0 l 627 102 l 623 102 q 367 -14 550 -14 q 115 256 115 -14 l 115 737 l 182 737 l 182 260 q 228 98 182 149 q 374 47 275 47 q 568 114 507 47 q 629 330 629 181 l 629 737 l 696 737 l 696 0 z "},"û":{"ha":819,"x_min":115,"x_max":696,"o":"m 607 842 l 559 842 q 410 982 475 911 q 260 842 338 906 l 212 842 l 212 852 q 301 958 254 898 q 376 1064 349 1019 l 443 1064 q 607 852 488 983 l 607 842 m 696 0 l 639 0 l 627 102 l 623 102 q 367 -14 550 -14 q 115 256 115 -14 l 115 737 l 182 737 l 182 260 q 228 98 182 149 q 374 47 275 47 q 568 114 507 47 q 629 330 629 181 l 629 737 l 696 737 l 696 0 z "},"ü":{"ha":819,"x_min":115,"x_max":696,"o":"m 280 1000 q 323 942 323 1000 q 280 884 323 884 q 237 942 237 884 q 248 986 237 972 q 280 1000 258 1000 m 538 1000 q 582 942 582 1000 q 539 884 582 884 q 496 942 496 884 q 506 986 496 972 q 538 1000 516 1000 m 696 0 l 639 0 l 627 102 l 623 102 q 367 -14 550 -14 q 115 256 115 -14 l 115 737 l 182 737 l 182 260 q 228 98 182 149 q 374 47 275 47 q 568 114 507 47 q 629 330 629 181 l 629 737 l 696 737 l 696 0 z "},"ý":{"ha":637,"x_min":0,"x_max":637,"o":"m 505 1064 l 505 1053 q 421 959 480 1017 q 292 842 362 900 l 245 842 l 245 852 q 342 968 294 905 q 409 1064 391 1031 l 505 1064 m 89 -334 q 3 -319 50 -334 l 3 -261 q 87 -272 41 -272 q 197 -205 155 -272 q 282 0 223 -163 l 0 737 l 69 737 l 225 323 q 315 66 294 140 l 319 66 q 412 328 345 143 l 568 737 l 637 737 l 307 -119 q 240 -260 268 -223 q 89 -334 186 -334 z "},"þ":{"ha":827,"x_min":123,"x_max":746,"o":"m 440 751 q 668 653 589 751 q 746 372 746 555 q 664 87 746 188 q 439 -14 582 -14 q 191 114 269 -14 l 186 114 l 188 57 q 191 -53 191 13 l 191 -334 l 123 -334 l 123 1055 l 191 1055 l 191 790 l 186 623 l 191 623 q 440 751 268 751 m 191 379 l 191 367 q 248 120 191 195 q 437 46 306 46 q 613 130 551 46 q 675 366 675 214 q 439 690 675 690 q 249 618 307 690 q 191 379 191 547 z "},"ÿ":{"ha":637,"x_min":0,"x_max":637,"o":"m 188 1000 q 231 942 231 1000 q 188 884 231 884 q 145 942 145 884 q 155 986 145 972 q 188 1000 165 1000 m 446 1000 q 490 942 490 1000 q 447 884 490 884 q 404 942 404 884 q 414 986 404 972 q 446 1000 424 1000 m 89 -334 q 3 -319 50 -334 l 3 -261 q 87 -272 41 -272 q 197 -205 155 -272 q 282 0 223 -163 l 0 737 l 69 737 l 225 323 q 315 66 294 140 l 319 66 q 412 328 345 143 l 568 737 l 637 737 l 307 -119 q 240 -260 268 -223 q 89 -334 186 -334 z "},"ı":{"ha":314,"x_min":123,"x_max":191,"o":"m 191 0 l 123 0 l 123 737 l 191 737 l 191 0 z "},"Œ":{"ha":1247,"x_min":87,"x_max":1162,"o":"m 1162 0 l 650 0 q 530 -11 600 -11 q 205 125 323 -11 q 87 497 87 260 q 206 868 87 734 q 532 1003 324 1003 q 656 991 583 1003 l 1162 991 l 1162 928 l 718 928 l 718 553 l 1136 553 l 1136 489 l 718 489 l 718 64 l 1162 64 l 1162 0 m 532 936 q 258 822 354 936 q 163 496 163 709 q 258 169 163 283 q 530 54 353 54 q 648 66 605 54 l 648 925 q 532 936 608 936 z "},"œ":{"ha":1317,"x_min":81,"x_max":1236,"o":"m 975 -14 q 794 32 869 -14 q 682 167 720 78 q 573 32 641 77 q 406 -14 505 -14 q 233 33 307 -14 q 120 167 159 80 q 81 370 81 254 q 168 650 81 549 q 408 751 255 751 q 685 562 607 751 q 956 751 760 751 q 1161 661 1086 751 q 1236 414 1236 570 l 1236 359 l 720 359 q 787 126 721 205 q 975 47 853 47 q 1088 57 1040 47 q 1207 94 1136 66 l 1207 33 q 1094 -3 1146 7 q 975 -14 1041 -14 m 1165 419 q 1109 620 1165 547 q 952 692 1054 692 q 792 622 851 692 q 722 419 732 552 l 1165 419 m 648 368 q 648 445 648 368 q 585 606 648 522 q 402 690 522 690 q 217 607 283 690 q 151 370 151 523 q 218 132 151 217 q 405 47 285 47 q 587 130 525 47 q 648 368 648 213 z "},"Š":{"ha":757,"x_min":75,"x_max":688,"o":"m 583 1293 l 583 1282 q 418 1071 467 1154 l 352 1071 q 188 1282 298 1160 l 188 1293 l 235 1293 q 385 1153 314 1228 q 535 1293 457 1229 l 583 1293 m 349 50 q 542 106 470 50 q 614 253 614 161 q 590 346 614 309 q 513 413 567 383 q 355 479 460 444 q 146 592 204 532 q 87 759 87 652 q 175 936 87 865 q 400 1006 262 1006 q 661 953 538 1006 l 636 893 q 402 945 514 945 q 225 894 290 945 q 160 755 160 843 q 180 666 160 701 q 245 602 200 631 q 404 534 291 574 q 575 457 516 494 q 661 372 634 420 q 688 256 688 324 q 597 59 688 132 q 354 -14 506 -14 q 75 26 173 -14 l 75 96 q 349 50 181 50 z "},"š":{"ha":647,"x_min":57,"x_max":581,"o":"m 515 1064 l 515 1053 q 351 842 399 925 l 284 842 q 120 1053 231 931 l 120 1064 l 168 1064 q 317 924 246 999 q 467 1064 389 1000 l 515 1064 m 57 104 q 283 49 168 49 q 456 84 399 49 q 514 178 514 120 q 470 275 514 237 q 318 351 425 313 q 165 419 211 389 q 97 485 119 448 q 75 572 75 522 q 145 704 75 656 q 337 751 215 751 q 566 707 458 751 l 541 646 q 340 690 431 690 q 196 661 249 690 q 143 575 143 631 q 184 486 143 520 q 334 412 225 451 q 488 344 442 373 q 557 278 534 315 q 581 192 581 241 q 505 40 581 93 q 287 -14 430 -14 q 57 32 143 -14 l 57 104 z "},"Ÿ":{"ha":733,"x_min":0,"x_max":733,"o":"m 238 1230 q 281 1171 281 1230 q 238 1113 281 1113 q 195 1171 195 1113 q 205 1216 195 1202 q 238 1230 216 1230 m 496 1230 q 540 1171 540 1230 q 497 1113 540 1113 q 454 1171 454 1113 q 464 1216 454 1202 q 496 1230 474 1230 m 403 0 l 332 0 l 332 378 l 0 991 l 79 991 l 368 449 l 659 991 l 733 991 l 403 383 l 403 0 z "},"Ž":{"ha":800,"x_min":56,"x_max":745,"o":"m 604 1293 l 604 1282 q 440 1071 489 1154 l 374 1071 q 210 1282 320 1160 l 210 1293 l 257 1293 q 407 1153 336 1228 q 557 1293 479 1229 l 604 1293 m 745 65 l 745 0 l 56 0 l 56 52 l 636 926 l 82 926 l 82 991 l 729 991 l 729 940 l 147 65 l 745 65 z "},"ž":{"ha":640,"x_min":56,"x_max":582,"o":"m 529 1064 l 529 1053 q 365 842 414 925 l 298 842 q 134 1053 245 931 l 134 1064 l 182 1064 q 332 924 260 999 q 481 1064 404 1000 l 529 1064 m 582 60 l 582 0 l 56 0 l 56 43 l 493 677 l 87 677 l 87 737 l 581 737 l 581 694 l 140 60 l 582 60 z "},"ƒ":{"ha":793,"x_min":129,"x_max":685,"o":"m 346 743 q 398 943 346 880 q 561 1006 450 1006 q 685 985 618 1006 l 667 926 q 559 946 607 946 q 447 900 481 946 q 412 749 412 854 l 412 639 l 603 639 l 603 579 l 412 579 l 412 -118 q 364 -278 412 -223 q 224 -334 316 -334 q 129 -321 165 -334 l 129 -260 q 227 -272 182 -272 q 346 -125 346 -272 l 346 579 l 205 579 l 205 619 l 346 644 l 346 743 z "},"ˆ":{"ha":802,"x_min":203,"x_max":597,"o":"m 597 842 l 550 842 q 400 982 466 911 q 250 842 328 906 l 203 842 l 203 852 q 292 958 245 898 q 367 1064 339 1019 l 433 1064 q 597 852 479 983 l 597 842 z "},"ˇ":{"ha":802,"x_min":203,"x_max":597,"o":"m 597 1064 l 597 1053 q 433 842 482 925 l 367 842 q 203 1053 313 931 l 203 1064 l 250 1064 q 400 924 329 999 q 550 1064 472 1000 l 597 1064 z "},"˘":{"ha":802,"x_min":211,"x_max":586,"o":"m 586 1008 q 396 842 566 842 q 211 1008 227 842 l 267 1008 q 308 924 276 950 q 399 899 339 899 q 490 924 458 899 q 532 1008 522 950 l 586 1008 z "},"˙":{"ha":328,"x_min":121,"x_max":208,"o":"m 164 1007 q 197 990 185 1007 q 208 942 208 973 q 197 894 208 911 q 164 876 185 876 q 121 942 121 876 q 164 1007 121 1007 z "},"˚":{"ha":802,"x_min":252,"x_max":546,"o":"m 252 987 q 252 1019 252 987 q 292 1091 252 1051 q 398 1131 333 1131 q 505 1090 464 1131 q 546 986 546 1050 q 505 883 546 922 q 399 843 465 843 q 292 883 333 843 q 252 987 252 922 m 492 986 q 492 1008 492 986 q 466 1056 492 1030 q 398 1082 439 1082 q 331 1056 357 1082 q 306 986 306 1030 q 331 917 306 943 q 399 892 356 892 q 467 917 441 892 q 492 986 492 943 z "},"˛":{"ha":241,"x_min":43,"x_max":237,"o":"m 110 -168 q 182 -243 110 -243 q 237 -235 215 -243 l 237 -292 q 167 -302 211 -302 q 76 -270 109 -302 q 43 -184 43 -237 q 146 0 43 -80 l 207 0 q 133 -83 156 -45 q 110 -168 110 -121 z "},"˜":{"ha":802,"x_min":192,"x_max":665,"o":"m 529 843 q 477 856 503 843 q 421 894 450 869 q 380 926 391 919 q 322 949 350 949 q 274 925 294 949 q 241 843 254 901 l 192 843 q 235 961 199 918 q 328 1004 271 1004 q 369 996 348 1004 q 405 977 391 987 q 440 949 418 967 q 473 922 463 931 q 529 899 505 899 q 614 1004 592 899 l 665 1004 q 619 885 654 926 q 529 843 583 843 z "},"˝":{"ha":802,"x_min":175,"x_max":624,"o":"m 395 1064 l 395 1053 q 222 842 305 918 l 175 842 l 175 852 q 219 911 195 873 q 302 1064 243 949 l 395 1064 m 624 1064 l 624 1053 q 452 842 534 918 l 404 842 l 404 852 q 448 911 425 873 q 532 1064 472 949 l 624 1064 z "},"́":{"ha":0,"x_min":-480,"x_max":-220,"o":"m -220 1064 l -220 1053 q -304 959 -245 1017 q -433 842 -363 900 l -480 842 l -480 852 q -383 968 -431 905 q -316 1064 -334 1031 l -220 1064 z "},"̃":{"ha":0,"x_min":-640,"x_max":-166,"o":"m -302 843 q -355 856 -328 843 q -411 894 -381 869 q -451 926 -440 919 q -510 949 -481 949 q -558 925 -538 949 q -590 843 -578 901 l -640 843 q -597 961 -633 918 q -504 1004 -561 1004 q -462 996 -484 1004 q -427 977 -441 987 q -391 949 -413 967 q -358 922 -369 931 q -302 899 -326 899 q -218 1004 -239 899 l -166 1004 q -213 885 -177 926 q -302 843 -248 843 z "},"μ":{"ha":828,"x_min":123,"x_max":704,"o":"m 704 0 l 647 0 l 635 102 l 631 102 q 530 18 597 50 q 382 -14 462 -14 q 187 62 255 -14 q 191 -53 191 -7 l 191 -334 l 123 -334 l 123 737 l 191 737 l 191 260 q 237 98 191 149 q 382 47 283 47 q 575 114 513 47 q 637 330 637 180 l 637 737 l 704 737 l 704 0 z "},"ְ":{"ha":0,"x_min":383,"x_max":468,"o":"m 425 -54 q 468 -105 468 -54 q 425 -156 468 -156 q 383 -105 383 -156 q 425 -54 383 -54 m 425 -233 q 468 -284 468 -233 q 425 -335 468 -335 q 383 -284 383 -335 q 425 -233 383 -233 z "},"ֱ":{"ha":0,"x_min":219,"x_max":671,"o":"m 260 -54 q 303 -105 303 -54 q 260 -156 303 -156 q 219 -105 219 -156 q 260 -54 219 -54 m 455 -54 q 498 -105 498 -54 q 455 -156 498 -156 q 414 -105 414 -156 q 455 -54 414 -54 m 627 -54 q 671 -105 671 -54 q 627 -156 671 -156 q 587 -105 587 -156 q 627 -54 587 -54 m 357 -233 q 400 -284 400 -233 q 357 -335 400 -335 q 315 -284 315 -335 q 357 -233 315 -233 m 627 -233 q 671 -284 671 -233 q 627 -335 671 -335 q 587 -284 587 -335 q 627 -233 587 -233 z "},"ֲ":{"ha":0,"x_min":242,"x_max":631,"o":"m 587 -54 q 631 -105 631 -54 q 587 -156 631 -156 q 546 -105 546 -156 q 587 -54 546 -54 m 484 -129 l 242 -129 l 242 -81 l 484 -81 l 484 -129 m 587 -233 q 631 -284 631 -233 q 587 -335 631 -335 q 546 -284 546 -335 q 587 -233 546 -233 z "},"ֳ":{"ha":0,"x_min":242,"x_max":631,"o":"m 587 -54 q 631 -105 631 -54 q 587 -156 631 -156 q 546 -105 546 -156 q 587 -54 546 -54 m 484 -129 l 387 -129 l 387 -266 l 338 -266 l 338 -129 l 242 -129 l 242 -81 l 484 -81 l 484 -129 m 587 -233 q 631 -284 631 -233 q 587 -335 631 -335 q 546 -284 546 -335 q 587 -233 546 -233 z "},"ִ":{"ha":0,"x_min":383,"x_max":468,"o":"m 425 -54 q 468 -105 468 -54 q 425 -156 468 -156 q 383 -105 383 -156 q 425 -54 383 -54 z "},"ֵ":{"ha":0,"x_min":286,"x_max":565,"o":"m 328 -54 q 370 -105 370 -54 q 328 -156 370 -156 q 286 -105 286 -156 q 328 -54 286 -54 m 522 -54 q 565 -105 565 -54 q 522 -156 565 -156 q 481 -105 481 -156 q 522 -54 481 -54 z "},"ֶ":{"ha":0,"x_min":287,"x_max":566,"o":"m 328 -54 q 371 -105 371 -54 q 328 -156 371 -156 q 287 -105 287 -156 q 328 -54 287 -54 m 523 -54 q 566 -105 566 -54 q 523 -156 566 -156 q 481 -105 481 -156 q 523 -54 481 -54 m 425 -233 q 468 -284 468 -233 q 425 -335 468 -335 q 383 -284 383 -335 q 425 -233 383 -233 z "},"ַ":{"ha":0,"x_min":304,"x_max":546,"o":"m 546 -124 l 304 -124 l 304 -75 l 546 -75 l 546 -124 z "},"ָ":{"ha":0,"x_min":304,"x_max":546,"o":"m 546 -124 l 449 -124 l 449 -260 l 401 -260 l 401 -124 l 304 -124 l 304 -75 l 546 -75 l 546 -124 z "},"ֹ":{"ha":0,"x_min":383,"x_max":468,"o":"m 425 922 q 468 871 468 922 q 425 821 468 821 q 383 871 383 821 q 425 922 383 922 z "},"ֺ":{"ha":0,"x_min":355,"x_max":439,"o":"m 395 922 q 439 871 439 922 q 395 821 439 821 q 355 871 355 821 q 395 922 355 922 z "},"ֻ":{"ha":0,"x_min":287,"x_max":566,"o":"m 328 -54 q 371 -105 371 -54 q 328 -156 371 -156 q 287 -105 287 -156 q 328 -54 287 -54 m 425 -143 q 468 -194 468 -143 q 425 -245 468 -245 q 383 -194 383 -245 q 425 -143 383 -143 m 523 -233 q 566 -284 566 -233 q 523 -335 566 -335 q 481 -284 481 -335 q 523 -233 481 -233 z "},"ּ":{"ha":0,"x_min":383,"x_max":468,"o":"m 425 433 q 468 382 468 433 q 425 332 468 332 q 383 382 383 332 q 425 433 383 433 z "},"ֽ":{"ha":852,"x_min":395,"x_max":456,"o":"m 456 -300 l 395 -300 l 395 -93 l 456 -93 l 456 -300 z "},"־":{"ha":447,"x_min":62,"x_max":385,"o":"m 385 819 l 62 819 l 62 875 l 385 875 l 385 819 z "},"ׁ":{"ha":0,"x_min":351,"x_max":436,"o":"m 393 922 q 436 871 436 922 q 393 821 436 821 q 351 871 351 821 q 393 922 351 922 z "},"ׂ":{"ha":0,"x_min":383,"x_max":468,"o":"m 425 922 q 468 871 468 922 q 425 821 468 821 q 383 871 383 821 q 425 922 383 922 z "},"ׇ":{"ha":0,"x_min":59,"x_max":254,"o":"m 254 -87 l 180 -87 l 180 -167 l 132 -167 l 132 -87 l 59 -87 l 59 -39 l 254 -39 l 254 -87 z "},"א":{"ha":774,"x_min":76,"x_max":694,"o":"m 687 875 l 687 555 q 646 363 687 430 q 598 314 629 337 q 525 280 567 291 l 694 0 l 620 0 l 292 542 q 233 525 262 542 q 163 445 184 498 q 142 304 142 391 l 142 0 l 76 0 l 76 304 q 105 480 76 420 q 137 532 118 507 q 258 600 176 584 l 91 875 l 165 875 l 490 337 q 530 351 513 341 q 600 424 580 378 q 621 555 621 469 l 621 875 l 687 875 z "},"ב":{"ha":689,"x_min":49,"x_max":662,"o":"m 49 882 q 224 888 155 888 q 339 883 294 888 q 426 860 383 877 q 497 817 469 844 q 542 746 525 790 q 559 642 559 701 l 559 60 l 662 60 l 662 0 l 50 0 l 50 60 l 490 60 l 490 642 q 442 777 490 732 q 319 823 404 814 q 228 827 285 827 q 49 820 171 827 l 49 882 z "},"ג":{"ha":522,"x_min":26,"x_max":407,"o":"m 241 888 q 367 834 328 888 q 407 688 407 781 l 407 0 l 348 0 l 341 144 l 336 144 q 279 64 302 88 q 115 -3 216 -3 q 26 5 77 -3 l 39 68 q 121 60 76 60 q 276 138 214 60 q 338 347 338 216 l 338 688 q 320 785 338 750 q 236 827 300 827 q 136 816 195 827 l 136 878 q 241 888 186 888 z "},"ד":{"ha":671,"x_min":31,"x_max":644,"o":"m 644 875 l 644 823 q 602 805 620 814 q 563 781 584 797 q 529 746 543 766 q 498 629 498 700 l 498 0 l 429 0 l 429 629 q 439 703 429 669 q 463 757 449 737 q 515 810 492 798 l 525 815 l 31 815 l 31 875 l 644 875 z "},"ה":{"ha":852,"x_min":123,"x_max":736,"o":"m 123 875 q 396 888 321 888 q 516 883 471 888 q 603 860 560 877 q 674 817 646 844 q 719 746 702 790 q 736 642 736 701 l 736 0 l 667 0 l 667 642 q 619 777 667 732 q 496 823 581 814 q 391 827 462 827 q 123 812 320 827 l 123 875 m 193 0 l 123 0 l 123 551 l 193 551 l 193 0 z "},"ו":{"ha":316,"x_min":123,"x_max":193,"o":"m 193 0 l 123 0 l 123 875 l 193 875 l 193 0 z "},"ז":{"ha":316,"x_min":25,"x_max":295,"o":"m 295 875 l 295 823 q 223 716 254 790 q 192 553 192 643 l 192 0 l 123 0 l 123 553 q 134 654 123 606 q 163 735 146 703 q 221 815 195 791 l 25 815 l 25 875 l 295 875 z "},"ח":{"ha":852,"x_min":123,"x_max":736,"o":"m 123 0 l 123 875 q 185 879 129 875 q 394 888 317 888 q 516 883 471 888 q 603 860 560 877 q 674 817 646 844 q 719 746 702 790 q 736 642 736 701 l 736 0 l 667 0 l 667 642 q 619 777 667 732 q 496 823 581 814 q 392 827 462 827 q 193 817 322 827 l 193 0 l 123 0 z "},"ט":{"ha":853,"x_min":115,"x_max":772,"o":"m 444 888 q 686 778 600 888 q 772 437 772 667 q 686 97 772 208 q 444 -14 600 -14 q 201 97 288 -14 q 115 437 115 208 l 115 875 l 185 875 l 185 437 q 266 121 185 215 q 339 67 294 87 q 444 47 385 47 q 548 67 503 47 q 621 120 593 87 q 667 204 650 154 q 692 311 685 255 q 699 437 699 368 q 692 563 699 507 q 667 670 685 619 q 621 754 650 720 q 548 808 593 788 q 444 827 503 827 q 381 821 413 827 l 381 883 q 444 888 412 888 z "},"י":{"ha":300,"x_min":115,"x_max":184,"o":"m 115 327 l 115 875 l 184 875 l 184 404 l 121 327 l 115 327 z "},"ך":{"ha":656,"x_min":20,"x_max":542,"o":"m 99 878 q 125 883 99 878 q 215 888 151 888 q 339 864 279 888 q 437 802 399 840 q 498 710 474 764 q 542 486 542 615 l 542 -334 l 471 -334 l 471 486 q 406 737 471 646 q 203 827 340 827 q 88 813 138 827 q 48 800 71 808 q 20 791 24 792 l 20 855 q 99 878 47 867 z "},"כ":{"ha":652,"x_min":49,"x_max":571,"o":"m 70 864 q 77 867 70 864 q 132 879 84 869 q 244 888 180 888 q 369 864 309 888 q 466 802 429 840 q 528 710 503 764 q 571 486 571 615 l 571 363 q 538 178 571 265 q 469 69 515 117 q 338 -3 418 18 q 244 -14 295 -14 q 145 -7 194 -14 q 73 5 96 -1 l 49 11 l 49 84 q 134 59 77 71 q 240 47 191 47 q 328 61 290 47 q 393 95 367 74 q 439 146 419 117 q 470 204 459 175 q 488 264 481 233 q 500 363 500 317 l 500 486 q 435 737 500 646 q 232 827 369 827 q 77 800 156 827 q 49 791 53 792 l 49 855 q 70 864 56 859 z "},"ל":{"ha":631,"x_min":31,"x_max":575,"o":"m 100 879 l 575 879 l 575 802 l 445 344 l 383 0 l 313 0 l 373 335 l 511 814 l 31 814 l 31 1064 l 100 1064 l 100 879 z "},"ם":{"ha":845,"x_min":117,"x_max":730,"o":"m 117 0 l 117 875 q 178 879 122 875 q 387 888 310 888 q 509 883 465 888 q 596 860 553 877 q 667 817 639 844 q 712 746 695 790 q 730 642 730 701 l 730 0 l 117 0 m 660 60 l 660 642 q 612 777 660 732 q 489 823 574 814 q 385 827 455 827 q 186 817 315 827 l 186 60 l 660 60 z "},"מ":{"ha":814,"x_min":66,"x_max":699,"o":"m 450 888 q 635 811 572 888 q 699 601 699 734 l 699 0 l 437 0 l 437 60 l 630 60 l 630 601 q 581 766 630 705 q 450 827 532 827 q 348 814 394 827 q 276 781 302 800 q 232 742 250 762 q 208 709 214 723 l 201 696 l 135 0 l 66 0 l 131 682 q 125 762 134 730 q 121 779 122 773 q 115 798 119 785 q 109 814 111 810 q 96 848 106 823 l 85 879 l 159 879 q 192 783 184 821 l 201 783 q 235 818 210 797 q 287 852 260 838 q 357 877 313 865 q 450 888 401 888 z "},"ן":{"ha":313,"x_min":77,"x_max":191,"o":"m 191 614 l 191 -334 l 122 -334 l 122 614 q 77 875 122 743 l 147 875 q 159 834 152 860 q 179 740 167 809 q 191 614 191 671 z "},"נ":{"ha":600,"x_min":87,"x_max":484,"o":"m 304 888 q 438 833 392 888 q 484 688 484 778 l 484 226 q 477 123 484 180 q 464 34 471 67 l 458 0 l 87 0 l 87 60 l 397 60 q 415 226 415 146 l 415 688 q 388 789 415 751 q 303 827 360 827 q 187 816 247 827 l 187 878 q 304 888 238 888 z "},"ס":{"ha":819,"x_min":81,"x_max":738,"o":"m 208 821 l 94 817 l 94 879 q 409 888 278 888 q 651 779 564 888 q 738 439 738 669 q 651 98 738 210 q 409 -14 565 -14 q 167 98 253 -14 q 81 439 81 209 q 208 821 81 711 m 555 785 q 491 816 528 804 q 415 827 454 827 q 297 825 344 827 l 281 823 q 184 667 215 760 q 153 439 153 575 q 231 121 153 214 q 304 67 260 87 q 408 47 349 47 q 512 67 467 47 q 586 121 557 87 q 632 206 614 155 q 664 439 664 298 q 632 673 664 586 q 555 785 604 747 z "},"ע":{"ha":787,"x_min":37,"x_max":750,"o":"m 750 875 l 712 498 q 574 174 694 313 q 428 58 515 105 q 228 -6 340 11 q 37 -33 115 -22 l 37 26 l 230 55 q 313 75 271 61 l 102 875 l 170 875 l 272 479 l 365 95 q 559 253 481 148 q 650 498 636 357 l 688 875 l 750 875 z "},"ף":{"ha":829,"x_min":67,"x_max":713,"o":"m 316 299 q 138 378 208 299 q 67 583 67 457 q 95 716 67 656 q 169 812 123 776 q 385 888 263 888 q 627 778 541 888 q 713 437 713 667 l 713 -334 l 644 -334 l 644 437 q 564 754 644 661 q 489 808 534 788 q 387 827 444 827 q 284 811 330 827 q 211 770 239 795 q 163 712 182 745 q 127 583 127 651 q 174 425 127 481 q 321 354 220 368 l 330 353 l 319 299 l 316 299 z "},"פ":{"ha":807,"x_min":81,"x_max":726,"o":"m 329 299 q 151 378 221 299 q 81 583 81 457 q 109 716 81 656 q 182 812 136 776 q 398 888 276 888 q 640 778 554 888 q 726 437 726 667 q 640 97 726 208 q 398 -14 554 -14 q 203 -3 281 -14 l 178 0 l 178 60 q 397 47 290 47 q 502 67 456 47 q 575 120 547 87 q 621 204 604 154 q 646 311 639 255 q 653 437 653 368 q 646 563 653 507 q 621 670 639 619 q 575 754 604 720 q 502 808 547 788 q 399 827 456 827 q 297 811 342 827 q 224 770 252 795 q 176 712 195 745 q 140 583 140 651 q 194 417 140 481 q 334 353 248 353 l 343 353 l 332 299 l 329 299 z "},"ץ":{"ha":609,"x_min":0,"x_max":543,"o":"m 543 875 l 543 611 q 491 418 543 488 q 436 367 471 391 q 354 332 401 344 l 252 304 l 252 -334 l 182 -334 l 182 373 l 0 875 l 69 875 l 252 369 l 353 397 q 441 470 408 413 q 474 611 474 526 l 474 875 l 543 875 z "},"צ":{"ha":728,"x_min":56,"x_max":663,"o":"m 658 0 l 56 0 l 56 60 l 576 60 l 353 393 l 58 875 l 132 875 l 393 441 l 430 385 q 585 703 565 511 l 602 875 l 663 875 l 646 703 q 589 500 636 596 q 465 334 543 404 l 658 43 l 658 0 z "},"ק":{"ha":796,"x_min":123,"x_max":741,"o":"m 531 12 l 531 0 l 463 0 l 463 12 q 469 68 463 38 l 479 118 q 506 226 486 154 q 529 312 526 298 q 543 360 533 326 q 555 402 553 394 l 671 815 l 123 815 l 123 875 l 741 875 l 741 815 l 624 402 q 605 334 616 374 q 585 262 593 293 q 571 210 576 231 q 558 162 566 190 q 547 115 551 134 q 539 75 543 96 q 531 12 531 33 m 193 -334 l 124 -334 l 124 515 l 193 515 l 193 -334 z "},"ר":{"ha":673,"x_min":31,"x_max":559,"o":"m 31 882 q 219 888 144 888 q 338 883 294 888 q 425 860 382 877 q 496 817 468 844 q 542 746 524 790 q 559 642 559 701 l 559 0 l 490 0 l 490 642 q 442 777 490 732 q 318 823 403 814 q 239 827 284 827 q 61 822 163 827 l 31 820 l 31 882 z "},"ש":{"ha":928,"x_min":49,"x_max":891,"o":"m 375 0 l 123 0 l 49 875 l 113 875 l 157 347 q 253 379 215 361 q 323 423 291 397 q 375 487 355 450 q 431 703 418 568 l 448 875 l 510 875 l 493 703 q 464 538 484 605 q 406 421 444 472 q 310 339 368 370 q 165 290 252 308 l 163 289 l 182 59 l 375 59 q 571 116 480 59 q 721 274 663 174 q 792 498 780 375 l 829 875 l 891 875 l 854 498 q 759 220 838 343 q 663 106 718 155 q 534 29 609 58 q 375 0 460 0 z "},"ת":{"ha":836,"x_min":17,"x_max":720,"o":"m 75 875 q 364 888 273 888 q 499 883 455 888 q 587 860 544 877 q 657 817 629 844 q 703 746 686 790 q 720 642 720 701 l 720 0 l 651 0 l 651 642 q 604 777 651 732 q 479 823 564 814 q 389 827 446 827 q 243 823 333 827 l 243 209 q 62 0 243 0 q 17 6 47 0 l 17 63 q 62 61 37 61 q 144 97 115 61 q 174 209 174 134 l 174 819 l 75 812 l 75 875 z "},"׳":{"ha":201,"x_min":20,"x_max":182,"o":"m 174 875 l 182 861 q 63 535 131 680 l 20 535 q 63 708 42 610 q 94 875 84 806 l 174 875 z "},"״":{"ha":416,"x_min":20,"x_max":397,"o":"m 174 875 l 182 861 q 63 535 131 680 l 20 535 q 63 708 42 610 q 94 875 84 806 l 174 875 m 389 875 l 397 861 q 338 680 372 771 q 279 535 304 588 l 235 535 q 277 704 255 600 q 310 875 300 807 l 389 875 z "},"–":{"ha":694,"x_min":56,"x_max":639,"o":"m 639 347 l 56 347 l 56 403 l 639 403 l 639 347 z "},"—":{"ha":1389,"x_min":56,"x_max":1333,"o":"m 1333 347 l 56 347 l 56 403 l 1333 403 l 1333 347 z "},"‘":{"ha":201,"x_min":20,"x_max":182,"o":"m 138 991 l 182 991 q 137 815 160 920 q 107 652 114 711 l 28 652 l 20 665 q 74 832 40 737 q 138 991 107 928 z "},"’":{"ha":201,"x_min":20,"x_max":182,"o":"m 174 991 l 182 978 q 63 652 131 797 l 20 652 q 63 824 42 726 q 94 991 84 922 l 174 991 z "},"‚":{"ha":306,"x_min":46,"x_max":208,"o":"m 200 161 l 208 148 q 90 -178 157 -31 l 46 -178 q 90 -6 68 -106 q 121 161 111 94 l 200 161 z "},"“":{"ha":416,"x_min":20,"x_max":397,"o":"m 138 991 l 182 991 q 137 815 160 920 q 107 652 114 711 l 28 652 l 20 665 q 74 832 40 737 q 138 991 107 928 m 353 991 l 397 991 q 355 823 377 925 q 322 652 332 721 l 243 652 l 235 665 q 293 843 260 753 q 353 991 326 932 z "},"”":{"ha":416,"x_min":20,"x_max":397,"o":"m 174 991 l 182 978 q 63 652 131 797 l 20 652 q 63 824 42 726 q 94 991 84 922 l 174 991 m 389 991 l 397 978 q 338 796 372 888 q 279 652 304 705 l 235 652 q 277 820 255 717 q 310 991 300 924 l 389 991 z "},"„":{"ha":521,"x_min":46,"x_max":424,"o":"m 200 161 l 208 148 q 90 -178 157 -31 l 46 -178 q 90 -6 68 -106 q 121 161 111 94 l 200 161 m 415 161 l 424 148 q 364 -34 398 58 q 306 -178 330 -125 l 261 -178 q 304 -10 281 -113 q 336 161 326 92 l 415 161 z "},"†":{"ha":682,"x_min":83,"x_max":599,"o":"m 355 772 l 599 791 l 599 715 l 355 729 l 374 0 l 294 0 l 313 729 l 83 715 l 83 791 l 313 772 l 294 1055 l 374 1055 l 355 772 z "},"‡":{"ha":682,"x_min":83,"x_max":599,"o":"m 355 775 l 599 791 l 599 715 l 355 732 l 367 533 l 355 313 l 599 329 l 599 253 l 355 269 l 374 0 l 294 0 l 313 269 l 83 253 l 83 329 l 313 313 l 301 533 l 313 732 l 83 715 l 83 791 l 313 775 l 294 1055 l 374 1055 l 355 775 z "},"•":{"ha":522,"x_min":157,"x_max":366,"o":"m 157 508 q 157 537 157 508 q 184 598 157 567 q 261 629 211 629 q 338 597 311 629 q 366 508 366 566 q 338 417 366 450 q 261 385 310 385 q 184 417 212 385 q 157 508 157 449 z "},"…":{"ha":994,"x_min":110,"x_max":884,"o":"m 164 119 q 220 53 220 119 q 164 -14 220 -14 q 110 53 110 -14 q 164 119 110 119 m 496 119 q 551 53 551 119 q 496 -14 551 -14 q 441 53 441 -14 q 496 119 441 119 m 828 119 q 884 53 884 119 q 828 -14 884 -14 q 774 53 774 -14 q 828 119 774 119 z "},"‰":{"ha":1581,"x_min":77,"x_max":1504,"o":"m 77 697 q 77 772 77 697 q 125 926 77 847 q 269 1006 174 1006 q 415 924 363 1006 q 467 693 467 843 q 416 463 467 543 q 272 383 365 383 q 128 465 179 383 q 77 697 77 547 m 318 0 l 253 0 l 803 991 l 868 991 l 318 0 m 400 696 q 367 883 400 820 q 269 946 333 946 q 174 884 205 946 q 143 695 143 821 q 174 506 143 568 q 269 443 205 443 q 400 696 400 443 m 654 298 q 654 374 654 298 q 704 528 654 449 q 848 607 754 607 q 993 526 941 607 q 1044 294 1044 445 q 994 64 1044 144 q 850 -16 944 -16 q 705 66 756 -16 q 654 298 654 148 m 1114 299 q 1114 374 1114 299 q 1163 528 1114 450 q 1307 607 1213 607 q 1453 526 1401 607 q 1504 294 1504 445 q 1454 64 1504 144 q 1311 -16 1404 -16 q 1165 65 1217 -16 q 1114 299 1114 148 m 847 547 q 752 486 783 547 q 721 297 721 424 q 752 108 721 170 q 847 46 783 46 q 978 297 978 46 q 847 547 978 547 m 1307 547 q 1212 486 1242 547 q 1181 297 1181 424 q 1212 108 1181 170 q 1307 46 1242 46 q 1438 297 1438 46 q 1307 547 1438 547 z "},"‹":{"ha":355,"x_min":56,"x_max":307,"o":"m 307 606 l 135 359 l 307 114 l 265 85 l 56 350 l 56 368 l 265 635 l 307 606 z "},"›":{"ha":355,"x_min":49,"x_max":300,"o":"m 300 370 l 300 351 l 90 85 l 49 114 l 221 359 l 49 606 l 90 635 l 300 370 z "},"₪":{"ha":1083,"x_min":115,"x_max":968,"o":"m 115 875 l 397 875 q 505 869 460 875 q 590 847 550 863 q 654 804 630 831 q 707 630 707 746 l 707 179 l 637 179 l 637 630 q 598 766 637 721 q 481 811 566 802 q 397 815 448 815 l 184 815 l 184 0 l 115 0 l 115 875 m 968 875 l 968 441 q 853 116 968 232 q 538 0 738 0 l 366 0 l 366 696 l 435 696 l 435 60 l 538 60 q 805 157 711 60 q 899 441 899 254 l 899 875 l 968 875 z "},"€":{"ha":793,"x_min":50,"x_max":754,"o":"m 50 615 l 175 615 q 299 903 201 800 q 545 1007 397 1007 q 754 957 659 1007 l 728 899 q 545 947 637 947 q 349 862 427 947 q 244 615 272 777 l 585 615 l 585 559 l 239 559 l 236 489 l 236 473 q 239 414 236 427 l 543 414 l 543 358 l 243 358 q 342 128 263 210 q 547 46 422 46 q 742 90 646 46 l 742 26 q 545 -14 645 -14 q 295 81 390 -14 q 172 358 201 176 l 50 358 l 50 414 l 167 414 q 164 490 164 436 l 167 559 l 50 559 l 50 615 z "},"™":{"ha":1007,"x_min":6,"x_max":884,"o":"m 361 939 l 212 939 l 212 503 l 154 503 l 154 939 l 6 939 l 6 991 l 361 991 l 361 939 m 884 503 l 825 503 l 825 772 l 828 913 l 823 913 l 669 503 l 619 503 l 469 916 l 465 916 l 468 779 l 468 503 l 412 503 l 412 991 l 497 991 l 647 581 l 799 991 l 884 991 l 884 503 z "},"שׁ":{"ha":928,"x_min":49,"x_max":924,"o":"m 880 1050 q 924 999 924 1050 q 880 948 924 948 q 839 999 839 948 q 880 1050 839 1050 m 375 0 l 123 0 l 49 875 l 113 875 l 157 347 q 253 379 215 361 q 323 423 291 397 q 375 487 355 450 q 431 703 418 568 l 448 875 l 510 875 l 493 703 q 464 538 484 605 q 406 421 444 472 q 310 339 368 370 q 165 290 252 308 l 163 289 l 182 59 l 375 59 q 571 116 480 59 q 721 274 663 174 q 792 498 780 375 l 829 875 l 891 875 l 854 498 q 759 220 838 343 q 663 106 718 155 q 534 29 609 58 q 375 0 460 0 z "},"שׂ":{"ha":928,"x_min":26,"x_max":891,"o":"m 68 1050 q 111 999 111 1050 q 68 948 111 948 q 26 999 26 948 q 68 1050 26 1050 m 375 0 l 123 0 l 49 875 l 113 875 l 157 347 q 253 379 215 361 q 323 423 291 397 q 375 487 355 450 q 431 703 418 568 l 448 875 l 510 875 l 493 703 q 464 538 484 605 q 406 421 444 472 q 310 339 368 370 q 165 290 252 308 l 163 289 l 182 59 l 375 59 q 571 116 480 59 q 721 274 663 174 q 792 498 780 375 l 829 875 l 891 875 l 854 498 q 759 220 838 343 q 663 106 718 155 q 534 29 609 58 q 375 0 460 0 z "},"שּׁ":{"ha":928,"x_min":49,"x_max":924,"o":"m 880 1050 q 924 999 924 1050 q 880 948 924 948 q 839 999 839 948 q 880 1050 839 1050 m 375 0 l 123 0 l 49 875 l 113 875 l 157 347 q 253 379 215 361 q 323 423 291 397 q 375 487 355 450 q 431 703 418 568 l 448 875 l 510 875 l 493 703 q 464 538 484 605 q 406 421 444 472 q 310 339 368 370 q 165 290 252 308 l 163 289 l 182 59 l 375 59 q 571 116 480 59 q 721 274 663 174 q 792 498 780 375 l 829 875 l 891 875 l 854 498 q 759 220 838 343 q 663 106 718 155 q 534 29 609 58 q 375 0 460 0 m 515 357 q 558 306 558 357 q 515 255 558 255 q 473 306 473 255 q 515 357 473 357 z "},"שּׂ":{"ha":928,"x_min":26,"x_max":891,"o":"m 68 1050 q 111 999 111 1050 q 68 948 111 948 q 26 999 26 948 q 68 1050 26 1050 m 375 0 l 123 0 l 49 875 l 113 875 l 157 347 q 253 379 215 361 q 323 423 291 397 q 375 487 355 450 q 431 703 418 568 l 448 875 l 510 875 l 493 703 q 464 538 484 605 q 406 421 444 472 q 310 339 368 370 q 165 290 252 308 l 163 289 l 182 59 l 375 59 q 571 116 480 59 q 721 274 663 174 q 792 498 780 375 l 829 875 l 891 875 l 854 498 q 759 220 838 343 q 663 106 718 155 q 534 29 609 58 q 375 0 460 0 m 515 357 q 558 306 558 357 q 515 255 558 255 q 473 306 473 255 q 515 357 473 357 z "},"אַ":{"ha":774,"x_min":76,"x_max":694,"o":"m 687 875 l 687 555 q 646 363 687 430 q 598 314 629 337 q 525 280 567 291 l 694 0 l 620 0 l 292 542 q 233 525 262 542 q 163 445 184 498 q 142 304 142 391 l 142 0 l 76 0 l 76 304 q 105 480 76 420 q 137 532 118 507 q 258 600 176 584 l 91 875 l 165 875 l 490 337 q 530 351 513 341 q 600 424 580 378 q 621 555 621 469 l 621 875 l 687 875 m 507 -146 l 265 -146 l 265 -98 l 507 -98 l 507 -146 z "},"אָ":{"ha":774,"x_min":76,"x_max":694,"o":"m 687 875 l 687 555 q 646 363 687 430 q 598 314 629 337 q 525 280 567 291 l 694 0 l 620 0 l 292 542 q 233 525 262 542 q 163 445 184 498 q 142 304 142 391 l 142 0 l 76 0 l 76 304 q 105 480 76 420 q 137 532 118 507 q 258 600 176 584 l 91 875 l 165 875 l 490 337 q 530 351 513 341 q 600 424 580 378 q 621 555 621 469 l 621 875 l 687 875 m 507 -146 l 410 -146 l 410 -283 l 362 -283 l 362 -146 l 265 -146 l 265 -98 l 507 -98 l 507 -146 z "},"אּ":{"ha":774,"x_min":76,"x_max":694,"o":"m 687 875 l 687 555 q 646 363 687 430 q 598 314 629 337 q 525 280 567 291 l 694 0 l 620 0 l 292 542 q 233 525 262 542 q 163 445 184 498 q 142 304 142 391 l 142 0 l 76 0 l 76 304 q 105 480 76 420 q 137 532 118 507 q 258 600 176 584 l 91 875 l 165 875 l 490 337 q 530 351 513 341 q 600 424 580 378 q 621 555 621 469 l 621 875 l 687 875 m 292 304 q 336 253 336 304 q 292 202 336 202 q 251 253 251 202 q 292 304 251 304 z "},"בּ":{"ha":689,"x_min":49,"x_max":662,"o":"m 49 882 q 224 888 155 888 q 339 883 294 888 q 426 860 383 877 q 497 817 469 844 q 542 746 525 790 q 559 642 559 701 l 559 60 l 662 60 l 662 0 l 50 0 l 50 60 l 490 60 l 490 642 q 442 777 490 732 q 319 823 404 814 q 228 827 285 827 q 49 820 171 827 l 49 882 m 250 503 q 294 452 294 503 q 250 401 294 401 q 209 452 209 401 q 250 503 209 503 z "},"גּ":{"ha":522,"x_min":26,"x_max":407,"o":"m 241 888 q 367 834 328 888 q 407 688 407 781 l 407 0 l 348 0 l 341 144 l 336 144 q 279 64 302 88 q 115 -3 216 -3 q 26 5 77 -3 l 39 68 q 121 60 76 60 q 276 138 214 60 q 338 347 338 216 l 338 688 q 320 785 338 750 q 236 827 300 827 q 136 816 195 827 l 136 878 q 241 888 186 888 m 160 503 q 203 452 203 503 q 160 401 203 401 q 119 452 119 401 q 160 503 119 503 z "},"דּ":{"ha":671,"x_min":31,"x_max":644,"o":"m 644 875 l 644 823 q 602 805 620 814 q 563 781 584 797 q 529 746 543 766 q 498 629 498 700 l 498 0 l 429 0 l 429 629 q 439 703 429 669 q 463 757 449 737 q 515 810 492 798 l 525 815 l 31 815 l 31 875 l 644 875 m 248 503 q 291 452 291 503 q 248 401 291 401 q 206 452 206 401 q 248 503 206 503 z "},"הּ":{"ha":852,"x_min":123,"x_max":736,"o":"m 123 875 q 396 888 321 888 q 516 883 471 888 q 603 860 560 877 q 674 817 646 844 q 719 746 702 790 q 736 642 736 701 l 736 0 l 667 0 l 667 642 q 619 777 667 732 q 496 823 581 814 q 391 827 462 827 q 123 812 320 827 l 123 875 m 123 0 l 123 551 l 193 551 l 193 0 l 123 0 m 425 503 q 468 452 468 503 q 425 401 468 401 q 383 452 383 401 q 425 503 383 503 z "},"וּ":{"ha":316,"x_min":-43,"x_max":193,"o":"m 123 0 l 123 875 l 193 875 l 193 0 l 123 0 m -1 503 q 42 452 42 503 q -1 401 42 401 q -43 452 -43 401 q -1 503 -43 503 z "},"זּ":{"ha":316,"x_min":-43,"x_max":295,"o":"m 295 875 l 295 823 q 223 716 254 790 q 192 553 192 643 l 192 0 l 123 0 l 123 553 q 134 654 123 606 q 163 735 146 703 q 221 815 195 791 l 25 815 l 25 875 l 295 875 m -1 503 q 42 452 42 503 q -1 401 42 401 q -43 452 -43 401 q -1 503 -43 503 z "},"טּ":{"ha":853,"x_min":115,"x_max":772,"o":"m 444 888 q 686 778 600 888 q 772 437 772 667 q 686 97 772 208 q 444 -14 600 -14 q 201 97 288 -14 q 115 437 115 208 l 115 875 l 185 875 l 185 437 q 266 121 185 215 q 339 67 294 87 q 444 47 385 47 q 548 67 503 47 q 621 120 593 87 q 667 204 650 154 q 692 311 685 255 q 699 437 699 368 q 692 563 699 507 q 667 670 685 619 q 621 754 650 720 q 548 808 593 788 q 444 827 503 827 q 381 821 413 827 l 381 883 q 444 888 412 888 m 435 503 q 479 452 479 503 q 435 401 479 401 q 394 452 394 401 q 435 503 394 503 z "},"יּ":{"ha":300,"x_min":-33,"x_max":184,"o":"m 115 327 l 115 875 l 184 875 l 184 404 l 121 327 l 115 327 m 8 661 q 52 610 52 661 q 8 559 52 559 q -33 610 -33 559 q 8 661 -33 661 z "},"ךּ":{"ha":656,"x_min":20,"x_max":542,"o":"m 99 878 q 125 883 99 878 q 215 888 151 888 q 339 864 279 888 q 437 802 399 840 q 498 710 474 764 q 542 486 542 615 l 542 -334 l 471 -334 l 471 486 q 406 737 471 646 q 203 827 340 827 q 88 813 138 827 q 48 800 71 808 q 20 791 24 792 l 20 855 q 99 878 47 867 m 244 503 q 288 452 288 503 q 244 401 288 401 q 203 452 203 401 q 244 503 203 503 z "},"כּ":{"ha":652,"x_min":49,"x_max":571,"o":"m 70 864 q 77 867 70 864 q 132 879 84 869 q 244 888 180 888 q 369 864 309 888 q 466 802 429 840 q 528 710 503 764 q 571 486 571 615 l 571 363 q 538 178 571 265 q 469 69 515 117 q 338 -3 418 18 q 244 -14 295 -14 q 145 -7 194 -14 q 73 5 96 -1 l 49 11 l 49 84 q 134 59 77 71 q 240 47 191 47 q 328 61 290 47 q 393 95 367 74 q 439 146 419 117 q 470 204 459 175 q 488 264 481 233 q 500 363 500 317 l 500 486 q 435 737 500 646 q 232 827 369 827 q 77 800 156 827 q 49 791 53 792 l 49 855 q 70 864 56 859 m 241 503 q 285 452 285 503 q 241 401 285 401 q 200 452 200 401 q 241 503 200 503 z "},"לּ":{"ha":631,"x_min":31,"x_max":575,"o":"m 575 879 l 575 802 l 445 344 l 383 0 l 313 0 l 373 335 l 511 814 l 31 814 l 31 1064 l 100 1064 l 100 879 l 575 879 m 214 503 q 258 452 258 503 q 214 401 258 401 q 173 452 173 401 q 214 503 173 503 z "},"מּ":{"ha":814,"x_min":66,"x_max":699,"o":"m 450 888 q 635 811 572 888 q 699 601 699 734 l 699 0 l 437 0 l 437 60 l 630 60 l 630 601 q 581 766 630 705 q 450 827 532 827 q 348 814 394 827 q 276 781 302 800 q 232 742 250 762 q 208 709 214 723 l 201 696 l 135 0 l 66 0 l 131 682 q 125 762 134 730 q 121 779 122 773 q 115 798 119 785 q 109 814 111 810 q 96 848 106 823 l 85 879 l 159 879 q 192 783 184 821 l 201 783 q 235 818 210 797 q 287 852 260 838 q 357 877 313 865 q 450 888 401 888 m 406 503 q 449 452 449 503 q 406 401 449 401 q 364 452 364 401 q 406 503 364 503 z "},"נּ":{"ha":600,"x_min":87,"x_max":484,"o":"m 304 888 q 438 833 392 888 q 484 688 484 778 l 484 226 q 477 123 484 180 q 464 34 471 67 l 458 0 l 87 0 l 87 60 l 397 60 q 415 226 415 146 l 415 688 q 388 789 415 751 q 303 827 360 827 q 187 816 247 827 l 187 878 q 304 888 238 888 m 264 503 q 308 452 308 503 q 264 401 308 401 q 223 452 223 401 q 264 503 223 503 z "},"סּ":{"ha":819,"x_min":81,"x_max":738,"o":"m 208 821 l 94 817 l 94 879 q 409 888 278 888 q 651 779 564 888 q 738 439 738 669 q 651 98 738 210 q 409 -14 565 -14 q 167 98 253 -14 q 81 439 81 209 q 208 821 81 711 m 555 785 q 491 816 528 804 q 415 827 454 827 q 297 825 344 827 l 281 823 q 184 667 215 760 q 153 439 153 575 q 231 121 153 214 q 304 67 260 87 q 408 47 349 47 q 512 67 467 47 q 586 121 557 87 q 632 206 614 155 q 664 439 664 298 q 632 673 664 586 q 555 785 604 747 m 408 503 q 452 452 452 503 q 408 401 452 401 q 367 452 367 401 q 408 503 367 503 z "},"ףּ":{"ha":829,"x_min":67,"x_max":713,"o":"m 316 299 q 138 378 208 299 q 67 583 67 457 q 95 716 67 656 q 169 812 123 776 q 385 888 263 888 q 627 778 541 888 q 713 437 713 667 l 713 -334 l 644 -334 l 644 437 q 564 754 644 661 q 489 808 534 788 q 387 827 444 827 q 284 811 330 827 q 211 770 239 795 q 163 712 182 745 q 127 583 127 651 q 174 425 127 481 q 321 354 220 368 l 330 353 l 319 299 l 316 299 m 384 631 q 427 581 427 631 q 384 530 427 530 q 342 581 342 530 q 384 631 342 631 z "},"פּ":{"ha":807,"x_min":81,"x_max":726,"o":"m 329 299 q 151 378 221 299 q 81 583 81 457 q 109 716 81 656 q 182 812 136 776 q 398 888 276 888 q 640 778 554 888 q 726 437 726 667 q 640 97 726 208 q 398 -14 554 -14 q 203 -3 281 -14 l 178 0 l 178 60 q 397 47 290 47 q 502 67 456 47 q 575 120 547 87 q 621 204 604 154 q 646 311 639 255 q 653 437 653 368 q 646 563 653 507 q 621 670 639 619 q 575 754 604 720 q 502 808 547 788 q 399 827 456 827 q 297 811 342 827 q 224 770 252 795 q 176 712 195 745 q 140 583 140 651 q 194 417 140 481 q 334 353 248 353 l 343 353 l 332 299 l 329 299 m 402 625 q 446 574 446 625 q 402 524 446 524 q 361 574 361 524 q 402 625 361 625 z "},"צּ":{"ha":728,"x_min":56,"x_max":663,"o":"m 658 0 l 56 0 l 56 60 l 576 60 l 353 393 l 58 875 l 132 875 l 393 441 l 430 385 q 585 703 565 511 l 602 875 l 663 875 l 646 703 q 589 500 636 596 q 465 334 543 404 l 658 43 l 658 0 m 176 387 q 219 336 219 387 q 176 286 219 286 q 134 336 134 286 q 176 387 134 387 z "},"קּ":{"ha":796,"x_min":123,"x_max":741,"o":"m 531 12 l 531 0 l 463 0 l 463 12 q 469 68 463 38 l 479 118 q 506 226 486 154 q 529 312 526 298 q 543 360 533 326 q 555 402 553 394 l 671 815 l 123 815 l 123 875 l 741 875 l 741 815 l 624 402 q 605 334 616 374 q 585 262 593 293 q 571 210 576 231 q 558 162 566 190 q 547 115 551 134 q 539 75 543 96 q 531 12 531 33 m 124 -334 l 124 515 l 193 515 l 193 -334 l 124 -334 m 384 503 q 427 452 427 503 q 384 401 427 401 q 342 452 342 401 q 384 503 342 503 z "},"רּ":{"ha":673,"x_min":31,"x_max":559,"o":"m 31 882 q 219 888 144 888 q 338 883 294 888 q 425 860 382 877 q 496 817 468 844 q 542 746 524 790 q 559 642 559 701 l 559 0 l 490 0 l 490 642 q 442 777 490 732 q 318 823 403 814 q 239 827 284 827 q 61 822 163 827 l 31 820 l 31 882 m 228 503 q 271 452 271 503 q 228 401 271 401 q 186 452 186 401 q 228 503 186 503 z "},"שּ":{"ha":928,"x_min":49,"x_max":891,"o":"m 375 0 l 123 0 l 49 875 l 113 875 l 157 347 q 253 379 215 361 q 323 423 291 397 q 375 487 355 450 q 431 703 418 568 l 448 875 l 510 875 l 493 703 q 464 538 484 605 q 406 421 444 472 q 310 339 368 370 q 165 290 252 308 l 163 289 l 182 59 l 375 59 q 571 116 480 59 q 721 274 663 174 q 792 498 780 375 l 829 875 l 891 875 l 854 498 q 759 220 838 343 q 663 106 718 155 q 534 29 609 58 q 375 0 460 0 m 515 357 q 558 306 558 357 q 515 255 558 255 q 473 306 473 255 q 515 357 473 357 z "},"תּ":{"ha":836,"x_min":17,"x_max":720,"o":"m 75 875 q 364 888 273 888 q 499 883 455 888 q 587 860 544 877 q 657 817 629 844 q 703 746 686 790 q 720 642 720 701 l 720 0 l 651 0 l 651 642 q 604 777 651 732 q 479 823 564 814 q 389 827 446 827 q 243 823 333 827 l 243 209 q 62 0 243 0 q 17 6 47 0 l 17 63 q 62 61 37 61 q 144 97 115 61 q 174 209 174 134 l 174 819 l 75 812 l 75 875 m 432 503 q 475 452 475 503 q 432 401 475 401 q 391 452 391 401 q 432 503 391 503 z "},"וֹ":{"ha":316,"x_min":96,"x_max":193,"o":"m 137 1050 q 180 999 180 1050 q 137 948 180 948 q 96 999 96 948 q 137 1050 96 1050 m 123 0 l 123 875 l 193 875 l 193 0 l 123 0 z "}," ":{"ha":361,"x_min":0,"x_max":0,"o":""}}}
